<svg width="120" height="120" viewBox="0 0 120 120" fill="none" xmlns="http://www.w3.org/2000/svg">
<path fill-rule="evenodd" clip-rule="evenodd" d="M111.169 120H40.1016C39.3258 120 38.6953 119.37 38.6953 118.594V44.9346L38.7844 45.0143C40.282 46.3432 42.5203 46.4346 44.1211 45.2299L48.3938 42.0166C50.0438 40.7768 50.5524 38.4986 49.5891 36.6752L47.6789 33.0611L51.8367 32.8127C53.8383 32.6955 55.4813 31.1815 55.7625 29.194L56.5125 23.8994C56.5336 23.7447 56.5477 23.5924 56.5524 23.4377H62.4211V33.6143C62.4211 35.944 64.3102 37.833 66.6399 37.833H98.6953C101.025 37.833 102.914 35.944 102.914 33.6143V23.4377H111.169C111.945 23.4377 112.575 24.0682 112.575 24.844V118.594C112.575 119.37 111.947 120 111.169 120ZM30.4336 46.3174C30.368 46.3174 30.3024 46.3127 30.2367 46.3033L24.9422 45.5533C24.2813 45.4596 23.775 44.9135 23.7375 44.2455L23.332 37.4416C22.786 37.1627 22.2516 36.8533 21.7406 36.5135L15.7547 39.6776C15.143 40.001 14.3883 39.8322 13.9735 39.2791L10.7578 35.0065C10.357 34.4721 10.3875 33.7268 10.8305 33.2276L15.3586 28.1299C15.1664 27.5463 15.0094 26.951 14.8875 26.3486L8.41642 24.3541C7.75783 24.1502 7.34298 23.4963 7.43908 22.8119L8.18908 17.5174C8.28283 16.8565 8.82892 16.3502 9.49689 16.3104L16.3008 15.9072C16.5797 15.3611 16.8891 14.8291 17.2289 14.3158L14.0649 8.3299C13.7414 7.71818 13.9102 6.96349 14.4633 6.54865L18.736 3.33537C19.2703 2.93224 20.0156 2.96271 20.5149 3.40802L25.6125 7.9338C26.1961 7.74162 26.7914 7.58458 27.3938 7.46271L29.3883 0.993959C29.5922 0.333021 30.2485 -0.0818223 30.9305 0.0142715L36.2227 0.764271C36.886 0.858021 37.3899 1.40646 37.4297 2.07208L37.8352 8.87599C38.3813 9.1549 38.9133 9.46427 39.4266 9.80412L45.4125 6.64005C46.0242 6.31896 46.7789 6.48771 47.1938 7.03849L50.407 11.3111C50.8102 11.8479 50.7797 12.5908 50.3344 13.0901L45.8086 18.1877C46.0008 18.7713 46.1578 19.3666 46.2797 19.969L52.7508 21.9658C53.4094 22.1697 53.8242 22.8213 53.7281 23.5057L52.9781 28.8002C52.8844 29.4635 52.3383 29.9674 51.6703 30.0072L44.8664 30.4104C44.5875 30.9565 44.2781 31.4885 43.9383 32.0018L47.1024 37.9877C47.4258 38.5994 47.257 39.3541 46.7039 39.769L42.4313 42.9846C41.8969 43.3854 41.1516 43.3549 40.6524 42.9119L35.5547 38.3838C34.9711 38.576 34.3758 38.733 33.7735 38.8549L31.7789 45.326C31.5938 45.9213 31.043 46.3174 30.4336 46.3174ZM30.5836 32.8127C30.5836 32.8127 30.5625 32.8127 30.5602 32.8127C27.982 32.8057 25.561 31.7955 23.7422 29.9674C21.9235 28.1416 20.925 25.7158 20.932 23.1354C20.9438 17.8268 25.2727 13.5072 30.5836 13.5072C33.1852 13.5119 35.6063 14.5221 37.425 16.3502C39.2438 18.1783 40.2422 20.6041 40.2352 23.1822C40.2235 28.4908 35.8922 32.8127 30.5836 32.8127ZM98.6953 35.0205H66.6399C65.8617 35.0205 65.2336 34.3901 65.2336 33.6143V18.4924C65.2336 17.7166 65.8617 17.0861 66.6399 17.0861H73.657C74.3367 12.7244 78.1172 9.37521 82.6664 9.37521C87.2156 9.37521 90.9985 12.7244 91.6758 17.0861H98.6953C99.4711 17.0861 100.102 17.7166 100.102 18.4924V33.6143C100.102 34.3901 99.4711 35.0205 98.6953 35.0205ZM103.174 56.4869H68.9438C68.168 56.4869 67.5375 55.8565 67.5375 55.0807C67.5375 54.3049 68.168 53.6744 68.9438 53.6744H103.174C103.95 53.6744 104.58 54.3049 104.58 55.0807C104.58 55.8565 103.95 56.4869 103.174 56.4869ZM103.174 70.5026H68.9438C68.168 70.5026 67.5375 69.8721 67.5375 69.0963C67.5375 68.3205 68.168 67.6901 68.9438 67.6901H103.174C103.95 67.6901 104.58 68.3205 104.58 69.0963C104.58 69.8721 103.95 70.5026 103.174 70.5026ZM103.282 84.5182H69.0516C68.2758 84.5182 67.6453 83.8877 67.6453 83.1119C67.6453 82.3338 68.2758 81.7057 69.0516 81.7057H103.282C104.058 81.7057 104.688 82.3338 104.688 83.1119C104.688 83.8877 104.058 84.5182 103.282 84.5182ZM103.174 98.5338H68.9438C68.168 98.5338 67.5375 97.9033 67.5375 97.1276C67.5375 96.3494 68.168 95.7213 68.9438 95.7213H103.174C103.95 95.7213 104.58 96.3494 104.58 97.1276C104.58 97.9033 103.95 98.5338 103.174 98.5338ZM52.9524 62.3486C52.5797 62.3486 52.2235 62.201 51.9586 61.9361L46.9945 56.9721C46.4461 56.4236 46.4461 55.533 46.9945 54.9846C47.543 54.4361 48.4336 54.4361 48.9844 54.9846L52.9524 58.9549L63.6844 48.2229C64.2328 47.6744 65.1235 47.6744 65.6719 48.2229C66.2227 48.7736 66.2227 49.6643 65.6719 50.2127L53.9485 61.9361C53.6836 62.201 53.3274 62.3486 52.9524 62.3486ZM52.9524 76.3643C52.5938 76.3643 52.2328 76.2283 51.9586 75.9518L46.9945 70.9877C46.4461 70.4393 46.4461 69.5486 46.9945 69.0002C47.543 68.4494 48.4336 68.4518 48.9844 69.0002L52.9524 72.9682L63.6844 62.2385C64.2328 61.6901 65.1235 61.6901 65.6719 62.2385C66.2227 62.7869 66.2227 63.6776 65.6719 64.2283L53.9485 75.9518C53.6742 76.2283 53.3133 76.3643 52.9524 76.3643ZM52.9524 90.3799C52.5797 90.3799 52.2235 90.2322 51.9586 89.9674L46.9945 85.0033C46.4461 84.4549 46.4461 83.5643 46.9945 83.0158C47.543 82.4674 48.4336 82.4674 48.9844 83.0158L52.9524 86.9862L63.6844 76.2565C64.2328 75.7057 65.1235 75.7057 65.6719 76.2565C66.2227 76.8049 66.2227 77.6955 65.6719 78.244L53.9485 89.9674C53.6836 90.2322 53.3274 90.3799 52.9524 90.3799ZM52.9524 104.396C52.5938 104.396 52.2328 104.257 51.9586 103.983L46.9945 99.019C46.4461 98.4705 46.4461 97.5799 46.9945 97.0315C47.543 96.483 48.4336 96.483 48.9844 97.0315L52.9524 100.999L63.6844 90.2697C64.2328 89.7213 65.1235 89.7213 65.6719 90.2697C66.2227 90.8182 66.2227 91.7088 65.6719 92.2596L53.9485 103.983C53.6742 104.257 53.3133 104.396 52.9524 104.396Z" fill="url(#paint0_linear_437_65)"/>
<defs>
<linearGradient id="paint0_linear_437_65" x1="-3.21004" y1="-36.4042" x2="205.681" y2="174.142" gradientUnits="userSpaceOnUse">
<stop offset="0.209912" stop-color="#7633B1"/>
<stop offset="0.663253" stop-color="#01DBDE"/>
</linearGradient>
</defs>
</svg>
