<svg width="90" height="90" viewBox="0 0 90 90" fill="none" xmlns="http://www.w3.org/2000/svg">
<g clip-path="url(#clip0_437_65)">
<path fill-rule="evenodd" clip-rule="evenodd" d="M83.3765 89.9998H30.0761C29.4942 89.9998 29.0214 89.5269 29.0214 88.9451V33.7006L29.0882 33.7603C30.2114 34.757 31.8901 34.8256 33.0907 33.9221L36.2952 31.5121C37.5327 30.5822 37.9142 28.8736 37.1917 27.506L35.7591 24.7955L38.8774 24.6092C40.3786 24.5213 41.6108 23.3857 41.8218 21.8951L42.3843 17.9242C42.4001 17.8082 42.4106 17.6939 42.4141 17.5779H46.8157V25.2103C46.8157 26.9576 48.2325 28.3744 49.9798 28.3744H74.0214C75.7686 28.3744 77.1854 26.9576 77.1854 25.2103V17.5779H83.3765C83.9583 17.5779 84.4311 18.0508 84.4311 18.6326V88.9451C84.4311 89.5269 83.9601 89.9998 83.3765 89.9998ZM22.8251 34.7377C22.7759 34.7377 22.7266 34.7342 22.6774 34.7271L18.7065 34.1646C18.2108 34.0943 17.8311 33.6848 17.803 33.1838L17.4989 28.0808C17.0893 27.8717 16.6886 27.6396 16.3054 27.3848L11.8159 29.7578C11.3571 30.0004 10.7911 29.8738 10.48 29.459L8.06825 26.2545C7.76766 25.8537 7.79051 25.2947 8.12274 24.9203L11.5188 21.0971C11.3747 20.6594 11.2569 20.2129 11.1655 19.7611L6.31219 18.2652C5.81825 18.1123 5.50712 17.6219 5.57919 17.1086L6.14169 13.1377C6.212 12.642 6.62157 12.2623 7.12255 12.2324L12.2255 11.9301C12.4347 11.5205 12.6667 11.1215 12.9216 10.7365L10.5485 6.24706C10.3059 5.78827 10.4325 5.22225 10.8474 4.91112L14.0518 2.50116C14.4526 2.19881 15.0116 2.22167 15.386 2.55565L19.2093 5.94999C19.647 5.80585 20.0934 5.68807 20.5452 5.59667L22.0411 0.745103C22.194 0.2494 22.6862 -0.0617329 23.1977 0.0103374L27.1669 0.572837C27.6643 0.64315 28.0423 1.05448 28.0722 1.5537L28.3763 6.65663C28.7858 6.86581 29.1849 7.09784 29.5698 7.35272L34.0593 4.97967C34.5181 4.73885 35.0841 4.86542 35.3952 5.2785L37.8052 8.48299C38.1075 8.88553 38.0847 9.44276 37.7507 9.81717L34.3563 13.6404C34.5005 14.0781 34.6183 14.5246 34.7097 14.9764L39.563 16.474C40.0569 16.6269 40.3681 17.1156 40.296 17.6289L39.7335 21.5998C39.6632 22.0973 39.2536 22.4752 38.7526 22.5051L33.6497 22.8074C33.4405 23.217 33.2085 23.616 32.9536 24.001L35.3267 28.4904C35.5692 28.9492 35.4427 29.5152 35.0278 29.8264L31.8233 32.2381C31.4225 32.5387 30.8636 32.5158 30.4891 32.1836L26.6659 28.7875C26.2282 28.9316 25.7817 29.0494 25.33 29.1408L23.8341 33.9941C23.6952 34.4406 23.2821 34.7377 22.8251 34.7377ZM22.9376 24.6092C22.9376 24.6092 22.9218 24.6092 22.92 24.6092C20.9864 24.6039 19.1706 23.8463 17.8065 22.4752C16.4425 21.1058 15.6936 19.2865 15.6989 17.3512C15.7077 13.3697 18.9544 10.1301 22.9376 10.1301C24.8888 10.1336 26.7046 10.8912 28.0686 12.2623C29.4327 13.6334 30.1815 15.4527 30.1763 17.3863C30.1675 21.3678 26.919 24.6092 22.9376 24.6092ZM74.0214 26.265H49.9798C49.3962 26.265 48.9251 25.7922 48.9251 25.2103V13.8689C48.9251 13.2871 49.3962 12.8142 49.9798 12.8142H55.2427C55.7524 9.54296 58.5878 7.03104 61.9997 7.03104C65.4116 7.03104 68.2487 9.54296 68.7567 12.8142H74.0214C74.6032 12.8142 75.0761 13.2871 75.0761 13.8689V25.2103C75.0761 25.7922 74.6032 26.265 74.0214 26.265ZM77.3806 42.3648H51.7077C51.1259 42.3648 50.653 41.892 50.653 41.3101C50.653 40.7283 51.1259 40.2555 51.7077 40.2555H77.3806C77.9624 40.2555 78.4352 40.7283 78.4352 41.3101C78.4352 41.892 77.9624 42.3648 77.3806 42.3648ZM77.3806 52.8765H51.7077C51.1259 52.8765 50.653 52.4037 50.653 51.8219C50.653 51.24 51.1259 50.7672 51.7077 50.7672H77.3806C77.9624 50.7672 78.4352 51.24 78.4352 51.8219C78.4352 52.4037 77.9624 52.8765 77.3806 52.8765ZM77.4614 63.3883H51.7886C51.2067 63.3883 50.7339 62.9154 50.7339 62.3336C50.7339 61.75 51.2067 61.2789 51.7886 61.2789H77.4614C78.0433 61.2789 78.5161 61.75 78.5161 62.3336C78.5161 62.9154 78.0433 63.3883 77.4614 63.3883ZM77.3806 73.9H51.7077C51.1259 73.9 50.653 73.4271 50.653 72.8453C50.653 72.2617 51.1259 71.7906 51.7077 71.7906H77.3806C77.9624 71.7906 78.4352 72.2617 78.4352 72.8453C78.4352 73.4271 77.9624 73.9 77.3806 73.9ZM39.7141 46.7611C39.4347 46.7611 39.1675 46.6504 38.9688 46.4517L35.2458 42.7287C34.8345 42.3174 34.8345 41.6494 35.2458 41.2381C35.6571 40.8267 36.3251 40.8267 36.7382 41.2381L39.7141 44.2158L47.7632 36.1668C48.1745 35.7555 48.8425 35.7555 49.2538 36.1668C49.6669 36.5799 49.6669 37.2478 49.2538 37.6592L40.4612 46.4517C40.2626 46.6504 39.9954 46.7611 39.7141 46.7611ZM39.7141 57.2728C39.4452 57.2728 39.1745 57.1709 38.9688 56.9635L35.2458 53.2404C34.8345 52.8291 34.8345 52.1611 35.2458 51.7498C35.6571 51.3367 36.3251 51.3385 36.7382 51.7498L39.7141 54.7258L47.7632 46.6785C48.1745 46.2672 48.8425 46.2672 49.2538 46.6785C49.6669 47.0898 49.6669 47.7578 49.2538 48.1709L40.4612 56.9635C40.2556 57.1709 39.9849 57.2728 39.7141 57.2728ZM39.7141 67.7846C39.4347 67.7846 39.1675 67.6738 38.9688 67.4752L35.2458 63.7521C34.8345 63.3408 34.8345 62.6728 35.2458 62.2615C35.6571 61.8502 36.3251 61.8502 36.7382 62.2615L39.7141 65.2392L47.7632 57.192C48.1745 56.7789 48.8425 56.7789 49.2538 57.192C49.6669 57.6033 49.6669 58.2713 49.2538 58.6826L40.4612 67.4752C40.2626 67.6738 39.9954 67.7846 39.7141 67.7846ZM39.7141 78.2963C39.4452 78.2963 39.1745 78.1926 38.9688 77.9869L35.2458 74.2639C34.8345 73.8525 34.8345 73.1846 35.2458 72.7732C35.6571 72.3619 36.3251 72.3619 36.7382 72.7732L39.7141 75.7492L47.7632 67.7019C48.1745 67.2906 48.8425 67.2906 49.2538 67.7019C49.6669 68.1133 49.6669 68.7812 49.2538 69.1943L40.4612 77.9869C40.2556 78.1926 39.9849 78.2963 39.7141 78.2963Z" fill="url(#paint0_linear_437_65)"/>
</g>
<defs>
<linearGradient id="paint0_linear_437_65" x1="-2.40765" y1="-27.3035" x2="154.261" y2="130.606" gradientUnits="userSpaceOnUse">
<stop offset="0.209912" stop-color="#7633B1"/>
<stop offset="0.663253" stop-color="#01DBDE"/>
</linearGradient>
<clipPath id="clip0_437_65">
<rect width="90" height="90" fill="white"/>
</clipPath>
</defs>
</svg>
