<svg width="90" height="90" viewBox="0 0 90 90" fill="none" xmlns="http://www.w3.org/2000/svg">
<g clip-path="url(#clip0_437_59)">
<path fill-rule="evenodd" clip-rule="evenodd" d="M81.1002 84.4734C80.6695 84.4734 80.2775 84.2238 80.0965 83.8318L75.658 74.2535L86.2752 74.1709L82.1162 83.8055C81.9439 84.2063 81.5519 84.4682 81.1143 84.4734C81.1107 84.4734 81.1055 84.4734 81.1002 84.4734ZM23.734 18.3762V7.49355H12.8514V18.3762H23.734ZM23.734 39.9287V29.0461H12.8514V39.9287H23.734ZM23.734 61.4813V50.5986H12.8514V61.4813H23.734ZM62.3777 71.1545L45.348 71.2055C45.2408 71.2055 45.1512 71.2951 45.1512 71.4006V88.4303L62.3777 71.1545ZM42.5144 63.6908H31.0553C30.4436 63.6908 29.9496 63.1951 29.9496 62.5834C29.9496 61.9734 30.4436 61.4777 31.0553 61.4777H42.5144C43.1244 61.4777 43.6201 61.9734 43.6201 62.5834C43.6201 63.1951 43.1244 63.6908 42.5144 63.6908ZM56.7 57.1447H31.0553C30.4436 57.1447 29.9496 56.649 29.9496 56.0373C29.9496 55.4273 30.4436 54.9316 31.0553 54.9316H56.7C57.3117 54.9316 57.8074 55.4273 57.8074 56.0373C57.8074 56.649 57.3117 57.1447 56.7 57.1447ZM63.9439 68.9379V2.7123C63.9439 1.21641 62.7275 0 61.2316 0H7.21406C5.71816 0 4.5 1.21641 4.5 2.7123V87.2877C4.5 88.7836 5.71816 90 7.21406 90H42.9381V71.4006C42.9381 70.077 44.0156 68.9959 45.341 68.9924L63.9439 68.9379ZM46.5521 50.5969H31.0553C30.4436 50.5969 29.9496 50.1012 29.9496 49.4912C29.9496 48.8795 30.4436 48.3838 31.0553 48.3838H46.5521C47.1639 48.3838 47.6596 48.8795 47.6596 49.4912C47.6596 50.1012 47.1639 50.5969 46.5521 50.5969ZM56.7 42.1383H31.0553C30.4436 42.1383 29.9496 41.6443 29.9496 41.0326C29.9496 40.4209 30.4436 39.9252 31.0553 39.9252H56.7C57.3117 39.9252 57.8074 40.4209 57.8074 41.0326C57.8074 41.6443 57.3117 42.1383 56.7 42.1383ZM56.7 35.5922H31.0553C30.4436 35.5922 29.9496 35.0965 29.9496 34.4865C29.9496 33.8748 30.4436 33.3791 31.0553 33.3791H56.7C57.3117 33.3791 57.8074 33.8748 57.8074 34.4865C57.8074 35.0965 57.3117 35.5922 56.7 35.5922ZM46.5521 29.0461H31.0553C30.4436 29.0461 29.9496 28.5504 29.9496 27.9387C29.9496 27.3287 30.4436 26.833 31.0553 26.833H46.5521C47.1639 26.833 47.6596 27.3287 47.6596 27.9387C47.6596 28.5504 47.1639 29.0461 46.5521 29.0461ZM56.7 20.5875H31.0553C30.4436 20.5875 29.9496 20.0918 29.9496 19.4818C29.9496 18.8701 30.4436 18.3744 31.0553 18.3744H56.7C57.3117 18.3744 57.8074 18.8701 57.8074 19.4818C57.8074 20.0918 57.3117 20.5875 56.7 20.5875ZM56.7 14.0414H31.0553C30.4436 14.0414 29.9496 13.5457 29.9496 12.934C29.9496 12.324 30.4436 11.8283 31.0553 11.8283H56.7C57.3117 11.8283 57.8074 12.324 57.8074 12.934C57.8074 13.5457 57.3117 14.0414 56.7 14.0414ZM25.9471 62.5887C25.9471 63.1986 25.4514 63.6943 24.8396 63.6943H11.7439C11.134 63.6943 10.6383 63.1986 10.6383 62.5887V49.493C10.6383 48.8812 11.134 48.3855 11.7439 48.3855H24.8396C25.4514 48.3855 25.9471 48.8812 25.9471 49.493V62.5887ZM46.5521 7.49355H31.0553C30.4436 7.49355 29.9496 6.99961 29.9496 6.38789C29.9496 5.77617 30.4436 5.28047 31.0553 5.28047H46.5521C47.1639 5.28047 47.6596 5.77617 47.6596 6.38789C47.6596 6.99961 47.1639 7.49355 46.5521 7.49355ZM24.8396 42.1418H11.7439C11.134 42.1418 10.6383 41.6461 10.6383 41.0344V27.9387C10.6383 27.3287 11.134 26.833 11.7439 26.833H24.8396C25.4514 26.833 25.9471 27.3287 25.9471 27.9387V41.0344C25.9471 41.6461 25.4514 42.1418 24.8396 42.1418ZM24.8396 20.5893H11.7439C11.134 20.5893 10.6383 20.0936 10.6383 19.4818V6.38613C10.6383 5.77617 11.134 5.28047 11.7439 5.28047H24.8396C25.4514 5.28047 25.9471 5.77617 25.9471 6.38613V19.4818C25.9471 20.0936 25.4514 20.5893 24.8396 20.5893ZM73.8 14.5371L73.7402 6.72715C73.735 6.11719 74.2271 5.61797 74.8389 5.6127L85.9975 5.52656C86.2857 5.53008 86.5723 5.63906 86.7814 5.84473C86.9906 6.05039 87.1101 6.33164 87.1119 6.62344L87.1734 14.4844L73.8 14.5371ZM75.3416 72.0439C74.7351 72.0439 74.2394 71.5535 74.2359 70.9453L73.8246 17.8857C73.8193 17.2758 74.3115 16.7748 74.9232 16.7713L86.0924 16.6852C86.6988 16.6852 87.1928 17.1738 87.198 17.782L87.6094 70.8416C87.6129 71.4533 87.1225 71.9525 86.5107 71.9561L75.3416 72.0439Z" fill="url(#paint0_linear_437_59)"/>
</g>
<defs>
<linearGradient id="paint0_linear_437_59" x1="-3.90607" y1="-27.3036" x2="152.483" y2="138.813" gradientUnits="userSpaceOnUse">
<stop offset="0.209912" stop-color="#7633B1"/>
<stop offset="0.663253" stop-color="#01DBDE"/>
</linearGradient>
<clipPath id="clip0_437_59">
<rect width="90" height="90" fill="white"/>
</clipPath>
</defs>
</svg>
