<svg width="120" height="120" viewBox="0 0 120 120" fill="none" xmlns="http://www.w3.org/2000/svg">
<g clip-path="url(#clip0_437_59)">
<path fill-rule="evenodd" clip-rule="evenodd" d="M108.134 112.631C107.559 112.631 107.037 112.298 106.795 111.776L100.877 99.0047L115.034 98.8945L109.488 111.741C109.259 112.275 108.736 112.624 108.152 112.631C108.148 112.631 108.141 112.631 108.134 112.631ZM31.6453 24.5016V9.99141H17.1352V24.5016H31.6453ZM31.6453 53.2383V38.7281H17.1352V53.2383H31.6453ZM31.6453 81.975V67.4648H17.1352V81.975H31.6453ZM83.1703 94.8727L60.4641 94.9406C60.3211 94.9406 60.2016 95.0602 60.2016 95.2008V117.907L83.1703 94.8727ZM56.6859 84.9211H41.407C40.5914 84.9211 39.9328 84.2602 39.9328 83.4445C39.9328 82.6312 40.5914 81.9703 41.407 81.9703H56.6859C57.4992 81.9703 58.1602 82.6312 58.1602 83.4445C58.1602 84.2602 57.4992 84.9211 56.6859 84.9211ZM75.6 76.193H41.407C40.5914 76.193 39.9328 75.532 39.9328 74.7164C39.9328 73.9031 40.5914 73.2422 41.407 73.2422H75.6C76.4156 73.2422 77.0766 73.9031 77.0766 74.7164C77.0766 75.532 76.4156 76.193 75.6 76.193ZM85.2586 91.9172V3.61641C85.2586 1.62188 83.6367 0 81.6422 0H9.61875C7.62422 0 6 1.62188 6 3.61641V116.384C6 118.378 7.62422 120 9.61875 120H57.2508V95.2008C57.2508 93.4359 58.6875 91.9945 60.4547 91.9898L85.2586 91.9172ZM62.0695 67.4625H41.407C40.5914 67.4625 39.9328 66.8016 39.9328 65.9883C39.9328 65.1727 40.5914 64.5117 41.407 64.5117H62.0695C62.8852 64.5117 63.5461 65.1727 63.5461 65.9883C63.5461 66.8016 62.8852 67.4625 62.0695 67.4625ZM75.6 56.1844H41.407C40.5914 56.1844 39.9328 55.5258 39.9328 54.7102C39.9328 53.8945 40.5914 53.2336 41.407 53.2336H75.6C76.4156 53.2336 77.0766 53.8945 77.0766 54.7102C77.0766 55.5258 76.4156 56.1844 75.6 56.1844ZM75.6 47.4562H41.407C40.5914 47.4562 39.9328 46.7953 39.9328 45.982C39.9328 45.1664 40.5914 44.5055 41.407 44.5055H75.6C76.4156 44.5055 77.0766 45.1664 77.0766 45.982C77.0766 46.7953 76.4156 47.4562 75.6 47.4562ZM62.0695 38.7281H41.407C40.5914 38.7281 39.9328 38.0672 39.9328 37.2516C39.9328 36.4383 40.5914 35.7773 41.407 35.7773H62.0695C62.8852 35.7773 63.5461 36.4383 63.5461 37.2516C63.5461 38.0672 62.8852 38.7281 62.0695 38.7281ZM75.6 27.45H41.407C40.5914 27.45 39.9328 26.7891 39.9328 25.9758C39.9328 25.1602 40.5914 24.4992 41.407 24.4992H75.6C76.4156 24.4992 77.0766 25.1602 77.0766 25.9758C77.0766 26.7891 76.4156 27.45 75.6 27.45ZM75.6 18.7219H41.407C40.5914 18.7219 39.9328 18.0609 39.9328 17.2453C39.9328 16.432 40.5914 15.7711 41.407 15.7711H75.6C76.4156 15.7711 77.0766 16.432 77.0766 17.2453C77.0766 18.0609 76.4156 18.7219 75.6 18.7219ZM34.5961 83.4516C34.5961 84.2648 33.9352 84.9258 33.1195 84.9258H15.6586C14.8453 84.9258 14.1844 84.2648 14.1844 83.4516V65.9906C14.1844 65.175 14.8453 64.5141 15.6586 64.5141H33.1195C33.9352 64.5141 34.5961 65.175 34.5961 65.9906V83.4516ZM62.0695 9.99141H41.407C40.5914 9.99141 39.9328 9.33281 39.9328 8.51719C39.9328 7.70156 40.5914 7.04063 41.407 7.04063H62.0695C62.8852 7.04063 63.5461 7.70156 63.5461 8.51719C63.5461 9.33281 62.8852 9.99141 62.0695 9.99141ZM33.1195 56.1891H15.6586C14.8453 56.1891 14.1844 55.5281 14.1844 54.7125V37.2516C14.1844 36.4383 14.8453 35.7773 15.6586 35.7773H33.1195C33.9352 35.7773 34.5961 36.4383 34.5961 37.2516V54.7125C34.5961 55.5281 33.9352 56.1891 33.1195 56.1891ZM33.1195 27.4523H15.6586C14.8453 27.4523 14.1844 26.7914 14.1844 25.9758V8.51484C14.1844 7.70156 14.8453 7.04063 15.6586 7.04063H33.1195C33.9352 7.04063 34.5961 7.70156 34.5961 8.51484V25.9758C34.5961 26.7914 33.9352 27.4523 33.1195 27.4523ZM98.4 19.3828L98.3203 8.96953C98.3133 8.15625 98.9695 7.49062 99.7852 7.48359L114.663 7.36875C115.048 7.37344 115.43 7.51875 115.709 7.79297C115.987 8.06719 116.147 8.44219 116.149 8.83125L116.231 19.3125L98.4 19.3828ZM100.455 96.0586C99.6469 96.0586 98.9859 95.4047 98.9812 94.5938L98.4328 23.8477C98.4258 23.0344 99.082 22.3664 99.8977 22.3617L114.79 22.2469C115.598 22.2469 116.257 22.8984 116.264 23.7094L116.812 94.4555C116.817 95.2711 116.163 95.9367 115.348 95.9414L100.455 96.0586Z" fill="url(#paint0_linear_437_59)"/>
</g>
<defs>
<linearGradient id="paint0_linear_437_59" x1="-5.20809" y1="-36.4048" x2="203.31" y2="185.084" gradientUnits="userSpaceOnUse">
<stop offset="0.209912" stop-color="#7633B1"/>
<stop offset="0.663253" stop-color="#01DBDE"/>
</linearGradient>
<clipPath id="clip0_437_59">
<rect width="120" height="120" fill="white"/>
</clipPath>
</defs>
</svg>
