<svg width="20" height="20" viewBox="0 0 20 20" fill="none" xmlns="http://www.w3.org/2000/svg">
<path d="M8.14652 11.6704L5.61957 9.13939L4.4802 10.2747L8.14652 13.941L18.5473 3.54021L17.412 2.40491L8.14652 11.6704ZM13.7294 9.73756C13.7823 10.0834 13.823 10.4049 13.823 10.7589C13.823 13.8108 11.3408 16.2889 8.29302 16.2889C5.24113 16.2889 2.76301 13.8067 2.76301 10.7589C2.76301 7.70704 5.2452 5.22892 8.29302 5.22892C9.70095 5.22892 10.7956 5.70094 11.8902 6.5514L13.0295 5.41203C11.6053 4.26045 10.1567 3.62566 8.29302 3.62566C4.35405 3.62159 1.15161 6.82403 1.15161 10.7589C1.15161 14.6938 4.35405 17.8963 8.28895 17.8963C12.2238 17.8963 15.4263 14.6938 15.4263 10.7589C15.4263 9.89626 15.2717 9.22892 15.0519 8.41508L13.7294 9.73756Z" fill="url(#paint0_linear_437_78)"/>
<defs>
<linearGradient id="paint0_linear_437_78" x1="-0.607873" y1="-2.29475" x2="25.4999" y2="31.4281" gradientUnits="userSpaceOnUse">
<stop offset="0.209912" stop-color="#7633B1"/>
<stop offset="0.663253" stop-color="#01DBDE"/>
</linearGradient>
</defs>
</svg>
