<svg width="120" height="120" viewBox="0 0 120 120" fill="none" xmlns="http://www.w3.org/2000/svg">
<path d="M103.951 75.6976H16.0488C11.3684 75.6976 7.56104 79.5049 7.56104 84.1854V103.515C7.56104 108.195 11.3684 112.002 16.0488 112.002H103.951C108.632 112.002 112.439 108.195 112.439 103.515V84.1854C112.439 79.5049 108.632 75.6976 103.951 75.6976ZM45.7366 90.2951C45.7366 90.9805 45.183 91.5366 44.4952 91.5366C43.8098 91.5366 43.2537 90.9805 43.2537 90.2951V86.6634C43.2537 84.8854 41.8098 83.4415 40.0342 83.4415H35.6464C33.8708 83.4415 32.4269 84.8854 32.4269 86.6634V101.037C32.4269 102.812 33.8708 104.256 35.6464 104.256H40.0342C41.8098 104.256 43.2537 102.812 43.2537 101.037V97.4049C43.2537 96.7195 43.8098 96.1634 44.4952 96.1634C45.183 96.1634 45.7366 96.7195 45.7366 97.4049V101.037C45.7366 104.183 43.1781 106.741 40.0318 106.741H35.644C32.5001 106.741 29.9391 104.183 29.9391 101.037V86.6634C29.9391 83.5171 32.5001 80.9561 35.644 80.9561H40.0318C43.1781 80.9561 45.7366 83.5171 45.7366 86.6634V90.2951ZM60.8952 93.0951C64.6586 93.0951 67.7171 96.1561 67.7171 99.9171C67.7171 103.68 64.6586 106.739 60.8952 106.739C57.1318 106.739 54.0732 103.68 54.0732 99.9171C54.0732 99.2317 54.6293 98.6756 55.3147 98.6756C56.0001 98.6756 56.5562 99.2317 56.5562 99.9171C56.5562 102.31 58.5025 104.254 60.8927 104.254C63.283 104.254 65.2293 102.31 65.2293 99.9171C65.2293 97.5268 63.283 95.5805 60.8927 95.5805C57.1293 95.5805 54.0708 92.522 54.0708 88.7585C54.0708 84.9951 57.1293 81.9366 60.8927 81.9366C64.6562 81.9366 67.7147 84.9951 67.7147 88.7585C67.7147 89.4439 67.1586 90 66.4732 90C65.7879 90 65.2318 89.4439 65.2318 88.7585C65.2318 86.3683 63.2854 84.422 60.8952 84.422C58.5049 84.422 56.5586 86.3683 56.5586 88.7585C56.5586 91.1512 58.5049 93.0951 60.8952 93.0951ZM83.2366 93.0951C87.0001 93.0951 90.0586 96.1561 90.0586 99.9171C90.0586 103.68 87.0001 106.739 83.2366 106.739C79.4732 106.739 76.4147 103.68 76.4147 99.9171C76.4147 99.2317 76.9708 98.6756 77.6562 98.6756C78.3415 98.6756 78.8976 99.2317 78.8976 99.9171C78.8976 102.31 80.844 104.254 83.2342 104.254C85.6245 104.254 87.5708 102.31 87.5708 99.9171C87.5708 97.5268 85.6245 95.5805 83.2342 95.5805C79.4708 95.5805 76.4123 92.522 76.4123 88.7585C76.4123 84.9951 79.4708 81.9366 83.2342 81.9366C86.9976 81.9366 90.0562 84.9951 90.0562 88.7585C90.0562 89.4439 89.5001 90 88.8147 90C88.1293 90 87.5732 89.4439 87.5732 88.7585C87.5732 86.3683 85.6269 84.422 83.2366 84.422C80.8464 84.422 78.9001 86.3683 78.9001 88.7585C78.9001 91.1512 80.8464 93.0951 83.2366 93.0951ZM96.9196 25.2829H88.5488C84.6001 25.2829 81.3879 22.0732 81.3879 18.122V9.7561L96.9196 25.2829ZM88.5488 27.7683C83.2293 27.7683 78.9025 23.4415 78.9025 18.122V7.99757H29.3415C24.6464 7.99757 20.8244 11.8171 20.8244 16.5146V73.2098H98.6757V27.7683H88.5488ZM30.5171 14.4976H66.8025C67.4903 14.4976 68.044 15.0537 68.044 15.739C68.044 16.4244 67.4903 16.9805 66.8025 16.9805H30.5171C29.8318 16.9805 29.2757 16.4244 29.2757 15.739C29.2757 15.0537 29.8318 14.4976 30.5171 14.4976ZM45.0025 54.1293V61.4122C45.0025 62.7342 46.0781 63.8098 47.4001 63.8098H51.0391C51.7244 63.8098 52.2805 64.3634 52.2805 65.0512C52.2805 65.7366 51.7244 66.2927 51.0391 66.2927H47.4001C44.7049 66.2927 42.5171 64.1 42.5171 61.4098V54.1268C42.5171 52.8049 41.4415 51.7293 40.1196 51.7293C39.4342 51.7293 38.8781 51.1756 38.8781 50.4878C38.8781 49.8024 39.4342 49.2463 40.1196 49.2463C41.4415 49.2463 42.5171 48.1732 42.5171 46.8512V39.5683C42.5171 36.8756 44.7074 34.6854 47.4001 34.6854H51.0391C51.7244 34.6854 52.2805 35.2415 52.2805 35.9268C52.2805 36.6122 51.7244 37.1683 51.0391 37.1683H47.4001C46.0781 37.1683 45.0025 38.2439 45.0025 39.5659V46.8488C45.0025 48.2927 44.3708 49.5927 43.3708 50.4878C44.3708 51.3854 45.0025 52.6854 45.0025 54.1293ZM30.5171 26.1781C29.8318 26.1781 29.2757 25.622 29.2757 24.9366C29.2757 24.2512 29.8318 23.6951 30.5171 23.6951H66.8025C67.4903 23.6951 68.044 24.2512 68.044 24.9366C68.044 25.622 67.4903 26.1781 66.8025 26.1781H30.5171ZM79.383 51.7317C78.061 51.7317 76.9854 52.8073 76.9854 54.1293V61.4122C76.9854 64.1049 74.7952 66.2951 72.1025 66.2951H68.461C67.7757 66.2951 67.2196 65.739 67.2196 65.0537C67.2196 64.3659 67.7757 63.8122 68.461 63.8122H72.1025C73.4244 63.8122 74.5001 62.7366 74.5001 61.4146V54.1317C74.5001 52.6878 75.1318 51.3878 76.1318 50.4902C75.1293 49.5951 74.5001 48.2951 74.5001 46.8512V39.5683C74.5001 38.2463 73.4244 37.1707 72.1025 37.1707H68.461C67.7757 37.1707 67.2196 36.6146 67.2196 35.9293C67.2196 35.2439 67.7757 34.6878 68.461 34.6878H72.1025C74.7976 34.6878 76.9854 36.8805 76.9854 39.5707V46.8537C76.9854 48.1756 78.061 49.2488 79.383 49.2488C80.0684 49.2488 80.6244 49.8049 80.6244 50.4902C80.6244 51.1781 80.0684 51.7317 79.383 51.7317Z" fill="url(#paint0_linear_412_574)"/>
<defs>
<linearGradient id="paint0_linear_412_574" x1="-3.04682" y1="-23.5547" x2="176.032" y2="184.164" gradientUnits="userSpaceOnUse">
<stop offset="0.209912" stop-color="#7633B1"/>
<stop offset="0.663253" stop-color="#01DBDE"/>
</linearGradient>
</defs>
</svg>
