<svg width="120" height="120" viewBox="0 0 120 120" fill="none" xmlns="http://www.w3.org/2000/svg">
<g clip-path="url(#clip0_455_148)">
<path d="M63.5163 118.598L107.781 76.6385C108.654 75.8112 109.207 74.7028 109.343 73.5082L117.079 5.69086C117.425 2.65805 115.053 0 112.001 0H7.9992C4.9467 0 2.57459 2.65805 2.92053 5.69086L10.6565 73.5082C10.7927 74.7028 11.3458 75.8114 12.2187 76.6385L56.4834 118.598C58.4552 120.467 61.5447 120.467 63.5163 118.598Z" fill="#98D5B9"/>
<path d="M112.001 0H107.303C110.355 0 112.727 2.65805 112.381 5.69086L104.645 73.5084C104.509 74.703 103.956 75.8114 103.083 76.6387L58.8185 118.598C58.4618 118.936 58.0676 119.211 57.6511 119.427C59.5374 120.404 61.9015 120.129 63.5166 118.598L107.781 76.6385C108.654 75.8114 109.207 74.7028 109.343 73.5082L117.079 5.69063C117.425 2.65805 115.053 0 112.001 0Z" fill="#7ACAA6"/>
<path d="M20.4688 70.3454L13.9081 12.8319C13.7755 11.6679 14.6856 10.6479 15.857 10.6479H104.143C105.315 10.6479 106.225 11.6679 106.092 12.8319L99.5317 70.3451C99.4794 70.8036 99.267 71.229 98.9321 71.5463L61.3496 107.172C60.5931 107.889 59.4074 107.889 58.6508 107.172L21.0683 71.5465C20.7334 71.2292 20.5213 70.8038 20.4688 70.3454Z" fill="#F5F8F9"/>
<path d="M104.143 10.6484H98.1651C99.3365 10.6484 100.247 11.6684 100.114 12.8323L93.5536 70.3459C93.5013 70.8043 93.289 71.2297 92.954 71.547L57.0112 105.618L58.6507 107.172C59.4072 107.889 60.5929 107.889 61.3495 107.172L98.932 71.5468C99.2669 71.2295 99.4793 70.8041 99.5315 70.3456L106.092 12.8321C106.225 11.6682 105.315 10.6484 104.143 10.6484Z" fill="#E8EDF2"/>
<path d="M114.166 87.7867H5.83387C4.85395 87.7867 4.00293 87.1115 3.78027 86.1571L0.111836 70.4341C0.0382422 70.1188 0.0382422 69.7909 0.111836 69.4757L3.78051 53.7527C4.00316 52.7983 4.85395 52.123 5.8341 52.123H114.166C115.146 52.123 115.997 52.7983 116.22 53.7527L119.888 69.4757C119.962 69.7909 119.962 70.1188 119.888 70.4341L116.22 86.1571C115.997 87.1115 115.146 87.7867 114.166 87.7867Z" fill="#CFFCE9"/>
<path d="M114.166 52.123H110.165L114.246 69.6109C114.298 69.8371 114.298 70.0727 114.246 70.2988L110.165 87.7867H114.166C115.146 87.7867 115.997 87.1115 116.22 86.1571L119.888 70.4341C119.962 70.1188 119.962 69.7909 119.888 69.4757L116.22 53.7527C115.997 52.7983 115.146 52.123 114.166 52.123Z" fill="#C2FAE3"/>
<path d="M40.3421 82.6913C33.3191 82.6913 27.6055 76.9777 27.6055 69.9547C27.6055 62.9316 33.3191 57.2183 40.3421 57.2183C42.8945 57.2183 45.3573 57.9708 47.4645 59.3949C48.293 59.9546 48.511 61.0805 47.9509 61.909C47.3909 62.7376 46.265 62.9555 45.4367 62.3954C43.9306 61.3777 42.1688 60.8398 40.3421 60.8398C35.3159 60.8398 31.2273 64.9287 31.2273 69.9544C31.2273 74.9806 35.3162 79.0693 40.3421 79.0693C42.2471 79.0693 43.8594 78.4936 45.1341 77.3583C45.3816 77.1378 45.6181 76.8936 45.8375 76.632C46.4802 75.8656 47.6225 75.7655 48.3887 76.4079C49.1551 77.0506 49.2552 78.1929 48.6127 78.9591C48.2806 79.3547 47.9209 79.7262 47.5428 80.0628C45.6123 81.7826 43.1225 82.6913 40.3421 82.6913Z" fill="#7A8C98"/>
<path d="M62.4832 82.6915C59.0504 82.6915 55.7021 81.2583 53.5266 78.8576C52.8551 78.1165 52.9114 76.9713 53.6525 76.2998C54.3933 75.6288 55.5382 75.6841 56.2102 76.4257C57.7104 78.0813 60.0556 79.0699 62.4832 79.0699C65.175 79.0699 66.9258 77.3988 67.2066 75.8266C67.4968 74.2008 66.2384 72.7427 63.754 71.8263C60.3933 70.5867 57.4114 69.2594 57.2857 69.2037C57.1986 69.1648 57.1146 69.119 57.0345 69.0665C55.0341 67.7622 54.0033 65.4733 54.345 63.0933C54.7125 60.533 56.5995 58.443 59.2693 57.6387C64.7684 55.983 69.3111 59.7295 69.5016 59.8896C70.2673 60.533 70.366 61.6755 69.7226 62.441C69.0809 63.2048 67.9425 63.3054 67.1771 62.6667C67.1056 62.609 63.8893 60.0286 60.3139 61.1067C58.9887 61.5056 58.0976 62.4408 57.9303 63.608C57.7953 64.549 58.159 65.4187 58.9072 65.9601C59.5442 66.2402 62.1725 67.3823 65.0075 68.4283C69.9872 70.2651 71.2505 73.7831 70.7722 76.4632C70.1379 80.014 66.5747 82.6915 62.4832 82.6915Z" fill="#7A8C98"/>
<path d="M84.0084 82.6915C80.5757 82.6915 77.2275 81.2583 75.052 78.8576C74.3805 78.1165 74.4368 76.9713 75.1779 76.2998C75.9185 75.6288 77.0636 75.6841 77.7356 76.4257C79.2358 78.0813 81.581 79.0699 84.0084 79.0699C86.7002 79.0699 88.4512 77.3988 88.7318 75.8266C89.0222 74.2008 87.7636 72.7427 85.2792 71.8266C81.9187 70.5867 78.9368 69.2595 78.8111 69.2037C78.7239 69.1648 78.64 69.1191 78.5599 69.0666C76.5595 67.7623 75.5287 65.4734 75.8704 63.0933C76.2379 60.533 78.1249 58.4431 80.7946 57.6387C86.2917 55.9831 90.8362 59.7293 91.027 59.8896C91.7925 60.533 91.8914 61.6756 91.248 62.441C90.6063 63.2049 89.4682 63.3049 88.7027 62.6672C88.6425 62.6184 85.421 60.0277 81.8393 61.1067C80.5141 61.5056 79.623 62.4408 79.4557 63.608C79.3207 64.549 79.6844 65.4188 80.4325 65.9602C81.0696 66.2402 83.6979 67.3823 86.5326 68.4284C91.5126 70.2652 92.7759 73.7831 92.2973 76.4632C91.6633 80.014 88.0999 82.6915 84.0084 82.6915Z" fill="#7A8C98"/>
<path d="M71.8788 21.9048H48.1213C47.121 21.9048 46.3105 21.0941 46.3105 20.094C46.3105 19.0937 47.1212 18.2832 48.1213 18.2832H71.8788C72.8791 18.2832 73.6895 19.0939 73.6895 20.094C73.6895 21.0941 72.8788 21.9048 71.8788 21.9048Z" fill="#7A8C98"/>
<path d="M12.6054 71.7661H9.18896C8.18864 71.7661 7.37817 70.9554 7.37817 69.9553C7.37817 68.955 8.18888 68.1445 9.18896 68.1445H12.6054C13.6058 68.1445 14.4162 68.9552 14.4162 69.9553C14.4165 70.9554 13.6058 71.7661 12.6054 71.7661Z" fill="#7ACAA6"/>
<path d="M110.811 71.7661H107.395C106.394 71.7661 105.584 70.9554 105.584 69.9553C105.584 68.955 106.395 68.1445 107.395 68.1445H110.811C111.812 68.1445 112.622 68.9552 112.622 69.9553C112.622 70.9554 111.812 71.7661 110.811 71.7661Z" fill="#7ACAA6"/>
<path d="M60 98.2186C58.9997 98.2186 58.1892 97.4079 58.1892 96.4078V94.2952C58.1892 93.2948 58.9999 92.4844 60 92.4844C61.0003 92.4844 61.8108 93.2951 61.8108 94.2952V96.4078C61.8108 97.4079 61.0001 98.2186 60 98.2186Z" fill="#7ACAA6"/>
<path d="M56.4184 47.0043C52.6332 47.0043 49.5538 43.9249 49.5538 40.1397C49.5538 40.0544 49.517 39.9731 49.453 39.9166L47.3556 38.0664C46.966 37.7226 46.7427 37.2283 46.7427 36.7085C46.7427 36.1886 46.966 35.6941 47.3558 35.3503L49.453 33.5006C49.517 33.4443 49.5538 33.3628 49.5538 33.2774C49.5538 29.4921 52.6332 26.4126 56.4184 26.4126C57.4187 26.4126 58.2292 27.2233 58.2292 28.2234C58.2292 29.2237 57.4185 30.0342 56.4184 30.0342C54.6303 30.0342 53.1756 31.4889 53.1756 33.2772C53.1756 34.401 52.6923 35.4721 51.8492 36.216L51.2914 36.7082L51.849 37.2004C52.6921 37.9438 53.1756 39.0152 53.1756 40.1392C53.1756 41.9275 54.6303 43.3823 56.4184 43.3823C57.4187 43.3823 58.2292 44.193 58.2292 45.1931C58.2292 46.1931 57.4187 47.0043 56.4184 47.0043Z" fill="#7A8C98"/>
<path d="M63.5815 47.0043C62.5812 47.0043 61.7708 46.1936 61.7708 45.1936C61.7708 44.1935 62.5815 43.3828 63.5815 43.3828C65.3698 43.3828 66.8246 41.928 66.8246 40.14C66.8246 39.0152 67.3081 37.9439 68.1516 37.2004L68.7087 36.7087L68.1514 36.217C67.3081 35.4731 66.8246 34.402 66.8246 33.2777C66.8246 31.4894 65.3698 30.0346 63.5815 30.0346C62.5812 30.0346 61.7708 29.2239 61.7708 28.2239C61.7708 27.2236 62.5815 26.4131 63.5815 26.4131C67.3669 26.4131 70.4464 29.4925 70.4464 33.2779C70.4464 33.3632 70.4832 33.4446 70.5472 33.5011L72.6443 35.3507C73.0341 35.6946 73.2575 36.1891 73.2575 36.7089C73.2575 37.2288 73.0341 37.7231 72.6446 38.0669L70.5474 39.9168C70.4829 39.9736 70.4464 40.0549 70.4464 40.1402C70.4464 43.9249 67.3669 47.0043 63.5815 47.0043Z" fill="#7A8C98"/>
</g>
<defs>
<clipPath id="clip0_455_148">
<rect width="120" height="120" fill="white"/>
</clipPath>
</defs>
</svg>
