<svg width="90" height="90" viewBox="0 0 90 90" fill="none" xmlns="http://www.w3.org/2000/svg">
<path fill-rule="evenodd" clip-rule="evenodd" d="M16.4778 83.3363C13.4543 82.192 10.2833 80.0984 10.7034 77.4511L14.9872 50.4845C15.5075 44.5396 24.2403 41.6797 31.0641 39.6213L38.076 49.9185C38.25 50.1734 38.5278 50.3404 38.8336 50.3738C38.8723 50.3773 38.9092 50.3791 38.9479 50.3791C39.2151 50.3791 39.4752 50.2771 39.6721 50.0925L39.7952 49.9765V51.7748C39.7952 52.3566 40.268 52.8295 40.8499 52.8295H42.0065H47.9936H49.1379C49.7215 52.8295 50.1926 52.3566 50.1926 51.7748V50.3351C50.386 50.5039 50.6338 50.5988 50.8905 50.5988C50.9239 50.5988 50.9573 50.597 50.9907 50.5935C51.3036 50.5636 51.5866 50.3966 51.7624 50.1365L58.9307 39.6265C65.7528 41.6832 74.4768 44.5431 74.9971 50.4845L79.2792 77.4511C79.7168 80.2109 76.4667 82.2412 73.5223 83.3381V59.2472C73.5223 55.939 70.8311 53.2496 67.5229 53.2496H49.3999H47.9936H42.0065H40.6002H22.4772C19.169 53.2496 16.4778 55.939 16.4778 59.2472V83.3363ZM79.701 89.9984H67.5229H22.4772H10.2991C9.71724 89.9984 9.24438 89.5256 9.24438 88.9437C9.24438 88.3619 9.71724 87.889 10.2991 87.889H19.0196C18.7436 87.3564 18.5872 86.75 18.5872 86.1084V59.2472C18.5872 57.1027 20.3327 55.3572 22.4772 55.3572H67.5229C69.6674 55.3572 71.4129 57.1027 71.4129 59.2472V86.1084C71.4129 86.75 71.2565 87.3547 70.9805 87.889H79.701C80.2829 87.889 80.7557 88.3619 80.7557 88.9437C80.7557 89.5256 80.2829 89.9984 79.701 89.9984ZM38.8776 81.7472C38.6614 81.7472 38.4452 81.6822 38.2571 81.5451L28.1145 74.1588C27.842 73.9601 27.6803 73.6437 27.6803 73.3062C27.6803 72.9687 27.842 72.6523 28.1145 72.4537L38.2571 65.0656C38.7282 64.7228 39.3874 64.8265 39.7301 65.2976C40.0729 65.7687 39.9692 66.4279 39.4999 66.7707L30.528 73.3062L39.4999 79.84C39.9692 80.1828 40.0729 80.8437 39.7301 81.3148C39.5245 81.5978 39.2028 81.7472 38.8776 81.7472ZM51.1243 81.7472C50.7973 81.7472 50.4756 81.5978 50.27 81.3148C49.9272 80.8437 50.0309 80.1828 50.502 79.84L59.4739 73.3062L50.502 66.7707C50.0309 66.4279 49.9272 65.7687 50.27 65.2976C50.6127 64.8265 51.2737 64.7228 51.743 65.0656L61.8856 72.4537C62.1581 72.6523 62.3198 72.9687 62.3198 73.3062C62.3198 73.6437 62.1581 73.9601 61.8856 74.1588L51.743 81.5451C51.5567 81.6822 51.3387 81.7472 51.1243 81.7472ZM42.2737 83.6685C42.184 83.6685 42.0926 83.658 42.0012 83.6334C41.4387 83.4822 41.1047 82.9039 41.2559 82.3414L46.5803 62.4693C46.7315 61.9068 47.3098 61.5728 47.8723 61.724C48.4348 61.8734 48.7688 62.4517 48.6176 63.0142L43.2932 82.8881C43.1666 83.3591 42.7395 83.6685 42.2737 83.6685ZM35.7135 33.817C34.0366 31.9062 32.6444 29.5648 31.6231 26.8877C31.0606 25.4164 30.6282 23.8836 30.3276 22.3314C31.1959 19.6859 33.3827 13.908 36.6364 11.0076C37.7438 12.0148 39.9481 14.1013 41.0415 15.7115C41.2612 16.0367 41.6426 16.2125 42.0293 16.1685C44.2336 15.9242 50.3825 15.4443 52.7573 16.0965C53.3127 16.4269 57.7108 20.6545 59.2682 24.0347C59.0045 25.056 58.6811 26.0615 58.2997 27.0406C57.2836 29.6562 55.9143 31.9449 54.269 33.817V37.0654L44.9403 42.4338L35.7135 36.9283V33.817ZM41.9045 47.9832L44.9579 45.1021L48.0833 48.2275V50.7201H46.9389H43.0612H41.9045V47.9832ZM33.1805 38.9849C33.6129 38.8531 34.0225 38.7265 34.4057 38.6035L43.2036 43.8558L40.1362 46.7527L40.1133 46.7756L39.1237 47.709L33.1805 38.9849ZM55.7368 38.6545C56.0778 38.7617 56.4364 38.8742 56.8126 38.9884L50.7358 47.897L46.6946 43.8558L55.7368 38.6545ZM29.8266 17.6381C29.7862 15.6658 29.9637 13.7252 30.368 11.897C31.1327 8.44293 32.6778 5.53727 34.8364 3.49645C37.4749 1.00036 40.9026 -0.17562 44.993 0.0230125C45.2866 0.00894996 45.5696 0.00191871 45.8543 0.00191871C49.5915 0.00191871 52.7327 1.19196 55.1901 3.53864C57.3522 5.60407 58.892 8.53961 59.6409 12.0271C60.242 14.8256 60.3159 17.8841 59.8905 20.9111C57.5051 17.3884 53.8506 14.2877 53.6854 14.1963C53.6204 14.1611 53.5536 14.133 53.4833 14.1119C50.7745 13.284 44.4288 13.8113 42.4125 14.0082C40.6495 11.6773 37.4924 8.9404 37.3483 8.81559C36.9668 8.48512 36.4043 8.47282 36.0071 8.78395C33.1875 10.997 31.1608 14.5566 29.8266 17.6381Z" fill="url(#paint0_linear_437_68)"/>
<defs>
<linearGradient id="paint0_linear_437_68" x1="2.0114" y1="-27.3012" x2="158.048" y2="115.317" gradientUnits="userSpaceOnUse">
<stop offset="0.209912" stop-color="#7633B1"/>
<stop offset="0.663253" stop-color="#01DBDE"/>
</linearGradient>
</defs>
</svg>
