<svg width="120" height="120" viewBox="0 0 120 120" fill="none" xmlns="http://www.w3.org/2000/svg">
<path fill-rule="evenodd" clip-rule="evenodd" d="M21.9702 111.115C17.939 109.589 13.7108 106.798 14.271 103.268L19.9827 67.3127C20.6765 59.3862 32.3202 55.5729 41.4187 52.8283L50.7679 66.558C50.9999 66.8979 51.3702 67.1205 51.778 67.1651C51.8296 67.1697 51.8788 67.1721 51.9304 67.1721C52.2866 67.1721 52.6335 67.0362 52.896 66.7901L53.0601 66.6354V69.033C53.0601 69.8088 53.6905 70.4393 54.4663 70.4393H56.0085H63.9913H65.5171C66.2952 70.4393 66.9233 69.8088 66.9233 69.033V67.1135C67.1812 67.3385 67.5116 67.4651 67.8538 67.4651C67.8983 67.4651 67.9429 67.4627 67.9874 67.458C68.4046 67.4182 68.7819 67.1955 69.0163 66.8487L78.5741 52.8354C87.6702 55.5776 99.3022 59.3908 99.996 67.3127L105.705 103.268C106.289 106.948 101.955 109.655 98.0296 111.117V78.9963C98.0296 74.5854 94.4413 70.9994 90.0304 70.9994H65.8663H63.9913H56.0085H54.1335H29.9694C25.5585 70.9994 21.9702 74.5854 21.9702 78.9963V111.115ZM106.268 119.998H90.0304H29.9694H13.7319C12.9562 119.998 12.3257 119.367 12.3257 118.592C12.3257 117.816 12.9562 117.185 13.7319 117.185H25.3593C24.9913 116.475 24.7827 115.667 24.7827 114.811V78.9963C24.7827 76.1369 27.1101 73.8096 29.9694 73.8096H90.0304C92.8897 73.8096 95.2171 76.1369 95.2171 78.9963V114.811C95.2171 115.667 95.0085 116.473 94.6405 117.185H106.268C107.044 117.185 107.674 117.816 107.674 118.592C107.674 119.367 107.044 119.998 106.268 119.998ZM51.8366 108.996C51.5483 108.996 51.2601 108.91 51.0093 108.727L37.4858 98.8783C37.1226 98.6135 36.9069 98.1916 36.9069 97.7416C36.9069 97.2916 37.1226 96.8697 37.4858 96.6049L51.0093 86.7541C51.6374 86.2971 52.5163 86.4354 52.9733 87.0635C53.4304 87.6916 53.2921 88.5705 52.6663 89.0276L40.7038 97.7416L52.6663 106.453C53.2921 106.91 53.4304 107.792 52.9733 108.42C52.6991 108.797 52.2702 108.996 51.8366 108.996ZM68.1655 108.996C67.7296 108.996 67.3007 108.797 67.0265 108.42C66.5694 107.792 66.7077 106.91 67.3358 106.453L79.2983 97.7416L67.3358 89.0276C66.7077 88.5705 66.5694 87.6916 67.0265 87.0635C67.4835 86.4354 68.3647 86.2971 68.9905 86.7541L82.514 96.6049C82.8772 96.8697 83.0929 97.2916 83.0929 97.7416C83.0929 98.1916 82.8772 98.6135 82.514 98.8783L68.9905 108.727C68.7421 108.91 68.4515 108.996 68.1655 108.996ZM56.3647 111.558C56.2452 111.558 56.1233 111.544 56.0015 111.511C55.2515 111.31 54.8062 110.538 55.0077 109.788L62.1069 83.2924C62.3085 82.5424 63.0796 82.0971 63.8296 82.2987C64.5796 82.4979 65.0249 83.269 64.8233 84.019L57.7241 110.517C57.5554 111.146 56.9858 111.558 56.3647 111.558ZM47.6179 45.0893C45.3819 42.5416 43.5257 39.4197 42.164 35.8502C41.414 33.8885 40.8374 31.8447 40.4366 29.7752C41.5944 26.2479 44.5101 18.544 48.8483 14.6768C50.3249 16.0197 53.264 18.8018 54.7218 20.9487C55.0147 21.3822 55.5233 21.6166 56.039 21.558C58.978 21.2322 67.1765 20.5924 70.3429 21.4619C71.0835 21.9026 76.9476 27.5393 79.0241 32.0463C78.6726 33.408 78.2413 34.7487 77.7327 36.0541C76.378 39.5416 74.5522 42.5932 72.3585 45.0893V49.4205L59.9202 56.5783L47.6179 49.2377V45.0893ZM55.8726 63.9776L59.9437 60.1362L64.1108 64.3033V67.6268H62.5851H57.4147H55.8726V63.9776ZM44.2405 51.9799C44.8171 51.8041 45.3632 51.6354 45.8741 51.4713L57.6046 58.4744L53.5147 62.3369L53.4843 62.3674L52.1647 63.6119L44.2405 51.9799ZM74.3155 51.5393C74.7702 51.6822 75.2483 51.8322 75.7499 51.9846L67.6476 63.8627L62.2593 58.4744L74.3155 51.5393ZM39.7687 23.5174C39.7147 20.8877 39.9515 18.3002 40.4905 15.8627C41.5101 11.2572 43.5702 7.38303 46.4483 4.66193C49.9663 1.33381 54.5366 -0.23416 59.9905 0.0306833C60.3819 0.0119333 60.7593 0.00255828 61.139 0.00255828C66.1218 0.00255828 70.3101 1.58928 73.5866 4.71818C76.4694 7.47209 78.5226 11.3862 79.521 16.0362C80.3226 19.7674 80.421 23.8455 79.8538 27.8815C76.6733 23.1846 71.8007 19.0502 71.5804 18.9283C71.4937 18.8815 71.4046 18.844 71.3108 18.8158C67.6991 17.7119 59.2382 18.4151 56.5499 18.6776C54.1991 15.5697 49.9897 11.9205 49.7976 11.7541C49.289 11.3135 48.539 11.2971 48.0093 11.7119C44.2499 14.6627 41.5476 19.4088 39.7687 23.5174Z" fill="url(#paint0_linear_437_68)"/>
<defs>
<linearGradient id="paint0_linear_437_68" x1="2.6817" y1="-36.4016" x2="210.731" y2="153.756" gradientUnits="userSpaceOnUse">
<stop offset="0.209912" stop-color="#7633B1"/>
<stop offset="0.663253" stop-color="#01DBDE"/>
</linearGradient>
</defs>
</svg>
