<svg width="408" height="330" viewBox="0 0 408 330" fill="none" xmlns="http://www.w3.org/2000/svg">
<g clip-path="url(#clip0_613_5)">
<path d="M159.001 284.999C159.001 302.809 169.351 318.203 184.362 325.494L162.896 266.686C160.402 272.28 159.001 278.474 159.001 284.999Z" fill="#1C769B"/>
<path d="M204.79 288.934L191.287 328.167C195.321 329.352 199.582 330 204 330C209.239 330 214.266 329.094 218.943 327.449C218.824 327.255 218.712 327.053 218.622 326.83L204.79 288.934Z" fill="#1C769B"/>
<path d="M234.378 282.73C234.378 277.166 232.378 273.316 230.668 270.32C228.385 266.609 226.245 263.47 226.245 259.766C226.245 255.628 229.382 251.777 233.802 251.777C234.003 251.777 234.191 251.804 234.383 251.814C226.383 244.478 215.714 240 204 240C188.277 240 174.449 248.066 166.405 260.281C167.461 260.315 168.456 260.336 169.299 260.336C174.003 260.336 181.293 259.765 181.293 259.765C183.717 259.619 184.002 263.186 181.578 263.47C181.578 263.47 179.141 263.758 176.428 263.901L192.814 312.641L202.663 283.107L195.657 263.901C193.229 263.758 190.933 263.47 190.933 263.47C188.509 263.327 188.792 259.621 191.221 259.765C191.221 259.765 198.651 260.336 203.073 260.336C207.779 260.336 215.065 259.765 215.065 259.765C217.492 259.619 217.777 263.186 215.351 263.47C215.351 263.47 212.911 263.758 210.203 263.901L226.465 312.271L230.957 297.274C232.895 291.047 234.378 286.579 234.378 282.73Z" fill="#1C769B"/>
<path d="M243.792 268.037C243.792 272.602 242.938 277.735 240.368 284.155L226.624 323.892C240.002 316.094 248.999 301.598 248.999 285C248.999 277.174 247 269.819 243.487 263.409C243.683 264.843 243.792 266.379 243.792 268.037Z" fill="#1C769B"/>
<path d="M226.247 259.765C226.247 255.626 229.384 251.775 233.804 251.775C234.004 251.775 234.193 251.803 234.384 251.813C226.383 244.478 215.714 240 204 240C188.277 240 174.449 248.066 166.405 260.281C167.461 260.315 168.456 260.336 169.299 260.336C174.003 260.336 181.293 259.765 181.293 259.765C183.717 259.619 184.002 263.186 181.578 263.47C181.578 263.47 179.141 263.758 176.428 263.901L182.677 282.487C186.928 283.988 191.534 284.814 196.345 284.814C198.346 284.814 200.313 284.67 202.236 284.396L202.665 283.109L195.658 263.903C193.231 263.759 190.935 263.472 190.935 263.472C188.51 263.328 188.793 259.622 191.222 259.766C191.222 259.766 198.653 260.338 203.074 260.338C207.78 260.338 215.067 259.766 215.067 259.766C217.494 259.621 217.778 263.187 215.353 263.472C215.353 263.472 212.913 263.759 210.204 263.903L215.618 280.01C221.114 277.054 225.771 272.881 229.166 267.874C227.53 265.159 226.247 262.63 226.247 259.765Z" fill="#2795B7"/>
<path d="M204 240C189.881 240 177.304 246.518 169.053 256.69C176.295 258.195 184.248 259.03 192.595 259.03C208.4 259.03 222.799 256.044 233.626 251.147C225.712 244.212 215.35 240 204 240Z" fill="#3FB5D1"/>
</g>
<g clip-path="url(#clip1_613_5)">
<path d="M351.516 237.598L395.781 195.639C396.654 194.811 397.207 193.703 397.343 192.508L405.079 124.691C405.425 121.658 403.053 119 400.001 119H295.999C292.947 119 290.575 121.658 290.921 124.691L298.657 192.508C298.793 193.703 299.346 194.811 300.219 195.639L344.483 237.598C346.455 239.467 349.545 239.467 351.516 237.598Z" fill="#98D5B9"/>
<path d="M400.001 119H395.303C398.355 119 400.727 121.658 400.381 124.691L392.645 192.508C392.509 193.703 391.956 194.811 391.083 195.639L346.819 237.598C346.462 237.936 346.068 238.211 345.651 238.427C347.537 239.404 349.902 239.129 351.517 237.598L395.781 195.639C396.654 194.811 397.207 193.703 397.343 192.508L405.079 124.691C405.425 121.658 403.053 119 400.001 119Z" fill="#7ACAA6"/>
<path d="M308.469 189.345L301.908 131.832C301.775 130.668 302.686 129.648 303.857 129.648H392.143C393.315 129.648 394.225 130.668 394.092 131.832L387.532 189.345C387.479 189.804 387.267 190.229 386.932 190.546L349.35 226.172C348.593 226.889 347.407 226.889 346.651 226.172L309.068 190.547C308.733 190.229 308.521 189.804 308.469 189.345Z" fill="#F5F8F9"/>
<path d="M392.143 129.648H386.165C387.337 129.648 388.247 130.668 388.114 131.832L381.554 189.346C381.501 189.804 381.289 190.23 380.954 190.547L345.011 224.618L346.651 226.172C347.407 226.889 348.593 226.889 349.35 226.172L386.932 190.547C387.267 190.229 387.479 189.804 387.532 189.346L394.092 131.832C394.225 130.668 393.315 129.648 392.143 129.648Z" fill="#E8EDF2"/>
<path d="M402.166 206.787H293.834C292.854 206.787 292.003 206.111 291.78 205.157L288.112 189.434C288.038 189.119 288.038 188.791 288.112 188.476L291.781 172.753C292.003 171.798 292.854 171.123 293.834 171.123H402.166C403.146 171.123 403.997 171.798 404.22 172.753L407.888 188.476C407.962 188.791 407.962 189.119 407.888 189.434L404.22 205.157C403.997 206.111 403.146 206.787 402.166 206.787Z" fill="#CFFCE9"/>
<path d="M402.166 171.123H398.165L402.246 188.611C402.298 188.837 402.298 189.073 402.246 189.299L398.165 206.787H402.166C403.146 206.787 403.997 206.111 404.22 205.157L407.888 189.434C407.962 189.119 407.962 188.791 407.888 188.476L404.22 172.753C403.997 171.798 403.146 171.123 402.166 171.123Z" fill="#C2FAE3"/>
<path d="M328.342 201.691C321.319 201.691 315.605 195.978 315.605 188.955C315.605 181.932 321.319 176.218 328.342 176.218C330.894 176.218 333.357 176.971 335.465 178.395C336.293 178.955 336.511 180.081 335.951 180.909C335.391 181.738 334.265 181.956 333.437 181.395C331.931 180.378 330.169 179.84 328.342 179.84C323.316 179.84 319.227 183.929 319.227 188.954C319.227 193.981 323.316 198.069 328.342 198.069C330.247 198.069 331.859 197.494 333.134 196.358C333.382 196.138 333.618 195.894 333.838 195.632C334.48 194.866 335.622 194.766 336.389 195.408C337.155 196.051 337.255 197.193 336.613 197.959C336.281 198.355 335.921 198.726 335.543 199.063C333.612 200.783 331.123 201.691 328.342 201.691Z" fill="#7A8C98"/>
<path d="M350.483 201.691C347.05 201.691 343.702 200.258 341.527 197.858C340.855 197.116 340.911 195.971 341.652 195.3C342.393 194.629 343.538 194.684 344.21 195.426C345.71 197.081 348.056 198.07 350.483 198.07C353.175 198.07 354.926 196.399 355.207 194.827C355.497 193.201 354.238 191.743 351.754 190.826C348.393 189.587 345.411 188.259 345.286 188.204C345.199 188.165 345.115 188.119 345.034 188.067C343.034 186.762 342.003 184.473 342.345 182.093C342.713 179.533 344.599 177.443 347.269 176.639C352.768 174.983 357.311 178.73 357.502 178.89C358.267 179.533 358.366 180.676 357.723 181.441C357.081 182.205 355.943 182.305 355.177 181.667C355.106 181.609 351.889 179.029 348.314 180.107C346.989 180.506 346.098 181.441 345.93 182.608C345.795 183.549 346.159 184.419 346.907 184.96C347.544 185.24 350.172 186.382 353.007 187.428C357.987 189.265 359.251 192.783 358.772 195.463C358.138 199.014 354.575 201.691 350.483 201.691Z" fill="#7A8C98"/>
<path d="M372.008 201.691C368.576 201.691 365.227 200.258 363.052 197.858C362.381 197.116 362.437 195.971 363.178 195.3C363.918 194.629 365.064 194.684 365.736 195.426C367.236 197.081 369.581 198.07 372.008 198.07C374.7 198.07 376.451 196.399 376.732 194.827C377.022 193.201 375.764 191.743 373.279 190.827C369.919 189.587 366.937 188.259 366.811 188.204C366.724 188.165 366.64 188.119 366.56 188.067C364.559 186.762 363.529 184.473 363.87 182.093C364.238 179.533 366.125 177.443 368.795 176.639C374.292 174.983 378.836 178.729 379.027 178.89C379.792 179.533 379.891 180.676 379.248 181.441C378.606 182.205 377.468 182.305 376.703 181.667C376.642 181.618 373.421 179.028 369.839 180.107C368.514 180.506 367.623 181.441 367.456 182.608C367.321 183.549 367.684 184.419 368.433 184.96C369.07 185.24 371.698 186.382 374.533 187.428C379.513 189.265 380.776 192.783 380.297 195.463C379.663 199.014 376.1 201.691 372.008 201.691Z" fill="#7A8C98"/>
<path d="M359.879 140.905H336.121C335.121 140.905 334.311 140.094 334.311 139.094C334.311 138.094 335.121 137.283 336.121 137.283H359.879C360.879 137.283 361.69 138.094 361.69 139.094C361.69 140.094 360.879 140.905 359.879 140.905Z" fill="#7A8C98"/>
<path d="M300.605 190.766H297.189C296.189 190.766 295.378 189.955 295.378 188.955C295.378 187.955 296.189 187.145 297.189 187.145H300.605C301.606 187.145 302.416 187.955 302.416 188.955C302.416 189.955 301.606 190.766 300.605 190.766Z" fill="#7ACAA6"/>
<path d="M398.811 190.766H395.395C394.394 190.766 393.584 189.955 393.584 188.955C393.584 187.955 394.395 187.145 395.395 187.145H398.811C399.812 187.145 400.622 187.955 400.622 188.955C400.622 189.955 399.812 190.766 398.811 190.766Z" fill="#7ACAA6"/>
<path d="M348 217.219C347 217.219 346.189 216.408 346.189 215.408V213.295C346.189 212.295 347 211.484 348 211.484C349 211.484 349.811 212.295 349.811 213.295V215.408C349.811 216.408 349 217.219 348 217.219Z" fill="#7ACAA6"/>
<path d="M344.418 166.004C340.633 166.004 337.554 162.925 337.554 159.14C337.554 159.054 337.517 158.973 337.453 158.917L335.356 157.066C334.966 156.723 334.743 156.228 334.743 155.708C334.743 155.189 334.966 154.694 335.356 154.35L337.453 152.501C337.517 152.444 337.554 152.363 337.554 152.277C337.554 148.492 340.633 145.413 344.418 145.413C345.419 145.413 346.229 146.223 346.229 147.223C346.229 148.224 345.418 149.034 344.418 149.034C342.63 149.034 341.176 150.489 341.176 152.277C341.176 153.401 340.692 154.472 339.849 155.216L339.291 155.708L339.849 156.2C340.692 156.944 341.176 158.015 341.176 159.139C341.176 160.928 342.63 162.382 344.418 162.382C345.419 162.382 346.229 163.193 346.229 164.193C346.229 165.193 345.419 166.004 344.418 166.004Z" fill="#7A8C98"/>
<path d="M351.582 166.004C350.581 166.004 349.771 165.194 349.771 164.194C349.771 163.193 350.581 162.383 351.582 162.383C353.37 162.383 354.825 160.928 354.825 159.14C354.825 158.015 355.308 156.944 356.152 156.2L356.709 155.709L356.151 155.217C355.308 154.473 354.825 153.402 354.825 152.278C354.825 150.489 353.37 149.035 351.582 149.035C350.581 149.035 349.771 148.224 349.771 147.224C349.771 146.224 350.581 145.413 351.582 145.413C355.367 145.413 358.446 148.493 358.446 152.278C358.446 152.363 358.483 152.445 358.547 152.501L360.644 154.351C361.034 154.695 361.257 155.189 361.257 155.709C361.257 156.229 361.034 156.723 360.645 157.067L358.547 158.917C358.483 158.974 358.446 159.055 358.446 159.14C358.446 162.925 355.367 166.004 351.582 166.004Z" fill="#7A8C98"/>
</g>
<g clip-path="url(#clip2_613_5)">
<path d="M209.516 118.598L253.781 76.6385C254.654 75.8114 255.207 74.7028 255.343 73.5081L263.079 5.69069C263.425 2.65808 261.053 0 258.001 0H153.999C150.946 0 148.575 2.65808 148.921 5.69069L156.657 73.5081C156.793 74.7028 157.346 75.8111 158.219 76.6385L202.484 118.598C204.455 120.467 207.545 120.467 209.516 118.598Z" fill="#FDB97E"/>
<path d="M258.001 0H253.303C256.355 0 258.728 2.65808 258.382 5.69069L250.645 73.5081C250.509 74.7027 249.956 75.8111 249.083 76.6385L204.819 118.598C204.462 118.936 204.068 119.211 203.651 119.427C205.537 120.404 207.902 120.129 209.516 118.598L253.781 76.6385C254.654 75.8114 255.207 74.703 255.343 73.5081L263.079 5.69069C263.425 2.65808 261.054 0 258.001 0Z" fill="#FEA95C"/>
<path d="M166.469 70.3456L159.908 12.8324C159.775 11.6684 160.685 10.6484 161.857 10.6484H250.143C251.314 10.6484 252.225 11.6684 252.092 12.8321L245.531 70.3456C245.479 70.8041 245.267 71.2295 244.932 71.5468L207.349 107.172C206.593 107.889 205.407 107.889 204.65 107.172L167.068 71.5468C166.733 71.2295 166.521 70.8041 166.469 70.3456Z" fill="#F5F8F9"/>
<path d="M250.143 10.6484H244.165C245.337 10.6484 246.247 11.6684 246.114 12.8321L239.554 70.3456C239.501 70.8041 239.289 71.2295 238.954 71.5468L203.011 105.618L204.651 107.172C205.407 107.889 206.593 107.889 207.35 107.172L244.932 71.5468C245.267 71.2295 245.479 70.8041 245.531 70.3456L252.092 12.8324C252.225 11.6684 251.314 10.6484 250.143 10.6484Z" fill="#E8EDF2"/>
<path d="M197.991 43.6861C197.42 43.6861 196.858 43.4171 196.506 42.9141L192.308 36.9221C191.871 36.2981 191.871 35.4678 192.308 34.8439L196.506 28.8521C197.08 28.0331 198.209 27.8339 199.028 28.4081C199.847 28.9821 200.046 30.1114 199.472 30.9303L196.002 35.8831L199.472 40.8361C200.046 41.6553 199.847 42.7845 199.028 43.3582C198.712 43.5795 198.349 43.6861 197.991 43.6861Z" fill="#7A8C98"/>
<path d="M214.009 43.686C213.651 43.686 213.288 43.5796 212.972 43.3581C212.153 42.7841 211.954 41.6549 212.528 40.836L215.998 35.8829L212.528 30.9301C211.954 30.111 212.153 28.9818 212.972 28.408C213.791 27.8343 214.92 28.0328 215.494 28.8519L219.692 34.8437C220.129 35.4676 220.129 36.298 219.692 36.9219L215.494 42.9139C215.142 43.4167 214.58 43.686 214.009 43.686Z" fill="#7A8C98"/>
<path d="M203.25 43.3989C202.985 43.3989 202.716 43.3408 202.462 43.2175C201.562 42.782 201.185 41.699 201.621 40.7988L207.141 29.3892C207.576 28.4889 208.659 28.1113 209.56 28.5478C210.46 28.9832 210.837 30.0663 210.401 30.9665L204.881 42.3761C204.568 43.0225 203.922 43.3989 203.25 43.3989Z" fill="#7A8C98"/>
<path d="M217.879 21.9048H194.121C193.121 21.9048 192.311 21.0941 192.311 20.094C192.311 19.0937 193.121 18.2832 194.121 18.2832H217.879C218.879 18.2832 219.69 19.0939 219.69 20.094C219.69 21.0941 218.879 21.9048 217.879 21.9048Z" fill="#7A8C98"/>
<path d="M263.175 87.7869H148.825C147.265 87.7869 146 86.5222 146 84.9622V54.9478C146 53.3877 147.265 52.123 148.825 52.123H263.176C264.736 52.123 266 53.3877 266 54.9478V84.9622C266 86.5222 264.735 87.7869 263.175 87.7869Z" fill="#FEDBBD"/>
<path d="M259.602 52.123V87.7869H263.176C264.736 87.7869 266 86.5222 266 84.9622V54.9478C266 53.3877 264.736 52.123 263.176 52.123H259.602Z" fill="#FECA9C"/>
<path d="M158.605 71.7656H155.189C154.188 71.7656 153.378 70.9549 153.378 69.9548C153.378 68.9545 154.189 68.144 155.189 68.144H158.605C159.606 68.144 160.416 68.9547 160.416 69.9548C160.416 70.9549 159.606 71.7656 158.605 71.7656Z" fill="#FEA95C"/>
<path d="M256.811 71.7656H253.395C252.394 71.7656 251.584 70.9549 251.584 69.9548C251.584 68.9545 252.394 68.144 253.395 68.144H256.811C257.811 68.144 258.622 68.9547 258.622 69.9548C258.622 70.9549 257.811 71.7656 256.811 71.7656Z" fill="#FEA95C"/>
<path d="M206 98.2186C205 98.2186 204.189 97.4079 204.189 96.4078V94.2952C204.189 93.2948 205 92.4844 206 92.4844C207 92.4844 207.811 93.2951 207.811 94.2952V96.4078C207.811 97.4079 207 98.2186 206 98.2186Z" fill="#FEA95C"/>
<path d="M216.546 81.3819C215.58 81.3819 214.725 80.7683 214.417 79.8519C214.41 79.8304 214.404 79.809 214.397 79.7872L210.546 66.7338L208.198 79.7422C208.021 80.7266 207.078 81.3798 206.094 81.2026C205.11 81.0248 204.456 80.083 204.634 79.0989L208.015 60.3702C208.211 59.3488 209.056 58.6023 210.073 58.5336C211.085 58.4661 212.026 59.0919 212.351 60.058C212.359 60.0796 212.366 60.1012 212.372 60.1232L216.523 74.1941L220.529 60.1424C220.535 60.1213 220.541 60.1007 220.548 60.0798C220.863 59.1102 221.795 58.4769 222.81 58.5311C223.828 58.5885 224.68 59.3258 224.884 60.3245L228.468 79.0804C228.656 80.0629 228.012 81.0112 227.03 81.1989C226.049 81.388 225.099 80.7428 224.911 79.7603L222.419 66.7219L218.701 79.7666C218.695 79.7875 218.688 79.8081 218.682 79.8287C218.382 80.7524 217.529 81.3763 216.558 81.3815C216.554 81.3819 216.55 81.3819 216.546 81.3819Z" fill="#7A8C98"/>
<path d="M236.935 81.3827C234.818 81.3827 234.694 81.3611 234.566 81.3394C233.697 81.1898 233.062 80.4363 233.062 79.5546V60.3386C233.062 59.3383 233.873 58.5278 234.873 58.5278C235.873 58.5278 236.684 59.3385 236.684 60.3386V77.7599H236.7C238.009 77.7599 239.871 77.7534 241.597 77.7438H241.608C242.603 77.7438 243.413 78.5479 243.418 79.5445C243.424 80.5446 242.618 81.3597 241.618 81.3656C239.443 81.3778 237.957 81.3827 236.935 81.3827Z" fill="#7A8C98"/>
<path d="M170.392 81.382C169.392 81.382 168.582 80.5713 168.582 79.5712V60.3391C168.582 59.3388 169.392 58.5283 170.392 58.5283C171.393 58.5283 172.203 59.339 172.203 60.3391V79.5712C172.203 80.5713 171.393 81.382 170.392 81.382Z" fill="#7A8C98"/>
<path d="M183.701 81.382C182.701 81.382 181.89 80.5713 181.89 79.5712V60.3391C181.89 59.3388 182.701 58.5283 183.701 58.5283C184.702 58.5283 185.512 59.339 185.512 60.3391V79.5712C185.512 80.5713 184.702 81.382 183.701 81.382Z" fill="#7A8C98"/>
<path d="M183.701 71.436H170.392C169.392 71.436 168.582 70.6253 168.582 69.6252C168.582 68.6252 169.392 67.8145 170.392 67.8145H183.701C184.701 67.8145 185.512 68.6252 185.512 69.6252C185.512 70.6253 184.701 71.436 183.701 71.436Z" fill="#7A8C98"/>
<path d="M202.71 62.1494H192.089C191.088 62.1494 190.278 61.3387 190.278 60.3386C190.278 59.3383 191.089 58.5278 192.089 58.5278H202.71C203.71 58.5278 204.52 59.3385 204.52 60.3386C204.52 61.3389 203.71 62.1494 202.71 62.1494Z" fill="#7A8C98"/>
<path d="M197.378 81.382C196.377 81.382 195.567 80.5712 195.567 79.5712V60.9529C195.567 59.9526 196.378 59.1421 197.378 59.1421C198.378 59.1421 199.188 59.9528 199.188 60.9529V79.5712C199.189 80.5712 198.378 81.382 197.378 81.382Z" fill="#7A8C98"/>
</g>
<g clip-path="url(#clip3_613_5)">
<path d="M63.5163 238.598L107.781 196.639C108.654 195.811 109.207 194.703 109.343 193.508L117.079 125.691C117.425 122.658 115.053 120 112.001 120H7.9992C4.9467 120 2.57459 122.658 2.92053 125.691L10.6565 193.508C10.7927 194.703 11.3458 195.811 12.2187 196.639L56.4834 238.598C58.4552 240.467 61.5447 240.467 63.5163 238.598Z" fill="#FFE177"/>
<path d="M112.001 120H107.303C110.355 120 112.727 122.658 112.381 125.691L104.645 193.508C104.509 194.703 103.956 195.811 103.083 196.639L58.8185 238.598C58.4618 238.936 58.0676 239.211 57.6511 239.427C59.5374 240.404 61.9015 240.129 63.5166 238.598L107.781 196.639C108.654 195.811 109.207 194.703 109.343 193.508L117.079 125.691C117.425 122.658 115.053 120 112.001 120Z" fill="#FFD15B"/>
<path d="M20.4688 190.345L13.9081 132.832C13.7755 131.668 14.6856 130.648 15.857 130.648H104.143C105.315 130.648 106.225 131.668 106.092 132.832L99.5317 190.345C99.4794 190.804 99.267 191.229 98.9321 191.547L61.3496 227.172C60.5931 227.889 59.4074 227.889 58.6508 227.172L21.0683 191.547C20.7334 191.229 20.5213 190.804 20.4688 190.345Z" fill="#F5F8F9"/>
<path d="M104.143 130.648H98.1651C99.3365 130.648 100.247 131.668 100.114 132.832L93.5536 190.346C93.5013 190.804 93.289 191.23 92.954 191.547L57.0112 225.618L58.6507 227.172C59.4072 227.889 60.5929 227.889 61.3495 227.172L98.932 191.547C99.2669 191.229 99.4793 190.804 99.5315 190.346L106.092 132.832C106.225 131.668 105.315 130.648 104.143 130.648Z" fill="#E8EDF2"/>
<path d="M51.9908 163.687C51.4198 163.687 50.8583 163.417 50.506 162.915L46.3081 156.923C45.8713 156.299 45.8713 155.468 46.3081 154.845L50.506 148.852C51.0798 148.034 52.2092 147.834 53.0284 148.409C53.8475 148.983 54.0463 150.112 53.4723 150.931L50.0021 155.884L53.4723 160.837C54.0463 161.656 53.8475 162.785 53.0284 163.359C52.712 163.58 52.3496 163.687 51.9908 163.687Z" fill="#7A8C98"/>
<path d="M68.0097 163.686C67.6509 163.686 67.2885 163.58 66.9721 163.358C66.153 162.785 65.9542 161.655 66.5282 160.836L69.9984 155.883L66.5282 150.93C65.9542 150.111 66.153 148.982 66.9721 148.408C67.7915 147.834 68.9207 148.033 69.4945 148.852L73.6924 154.844C74.1292 155.468 74.1292 156.298 73.6924 156.922L69.4945 162.914C69.1422 163.417 68.5802 163.686 68.0097 163.686Z" fill="#7A8C98"/>
<path d="M57.2494 163.4C56.9847 163.4 56.7162 163.342 56.4621 163.218C55.5619 162.783 55.185 161.7 55.6207 160.799L61.1407 149.39C61.5757 148.489 62.6587 148.112 63.5594 148.548C64.4597 148.984 64.8365 150.067 64.4008 150.967L58.8808 162.377C58.5684 163.023 57.9222 163.4 57.2494 163.4Z" fill="#7A8C98"/>
<path d="M71.8788 141.905H48.1213C47.121 141.905 46.3105 141.094 46.3105 140.094C46.3105 139.094 47.1212 138.283 48.1213 138.283H71.8788C72.8791 138.283 73.6895 139.094 73.6895 140.094C73.6895 141.094 72.8788 141.905 71.8788 141.905Z" fill="#7A8C98"/>
<path d="M110.321 207.787H9.67945C4.33359 207.787 0 203.453 0 198.108V181.803C0 176.457 4.33359 172.124 9.67945 172.124H110.32C115.666 172.124 120 176.457 120 181.803V198.108C120 203.453 115.666 207.787 110.321 207.787Z" fill="#FFF3BE"/>
<path d="M110.32 172.123H103.68C109.026 172.123 113.36 176.457 113.36 181.803V198.107C113.36 203.453 109.027 207.787 103.68 207.787H110.32C115.666 207.787 120 203.453 120 198.107V181.803C120 176.457 115.666 172.123 110.32 172.123Z" fill="#FEDBA6"/>
<path d="M30.7141 191.766H27.2976C26.2973 191.766 25.4868 190.955 25.4868 189.955C25.4868 188.955 26.2975 188.144 27.2976 188.144H30.7141C31.7144 188.144 32.5249 188.955 32.5249 189.955C32.5249 190.955 31.7144 191.766 30.7141 191.766Z" fill="#FFD15B"/>
<path d="M92.7026 191.766H89.2861C88.2858 191.766 87.4753 190.955 87.4753 189.955C87.4753 188.955 88.286 188.144 89.2861 188.144H92.7026C93.7029 188.144 94.5134 188.955 94.5134 189.955C94.5134 190.955 93.7029 191.766 92.7026 191.766Z" fill="#FFD15B"/>
<path d="M60 218.219C58.9997 218.219 58.1892 217.408 58.1892 216.408V214.295C58.1892 213.295 58.9999 212.484 60 212.484C61.0001 212.484 61.8108 213.295 61.8108 214.295V216.408C61.8108 217.408 61.0001 218.219 60 218.219Z" fill="#FFD15B"/>
<path d="M48.2504 201.231C46.3622 201.231 44.7406 200.188 43.9022 199.345C43.1975 198.636 43.201 197.489 43.9102 196.784C44.6164 196.083 45.7552 196.082 46.4609 196.782C46.5362 196.854 47.8224 198.061 49.0254 197.392C49.6505 197.045 50.0391 196.364 50.0391 195.615V180.497C50.0391 179.497 50.8498 178.687 51.8499 178.687C52.8502 178.687 53.6607 179.497 53.6607 180.497V195.615C53.6607 197.679 52.5582 199.573 50.783 200.559C49.9175 201.04 49.0594 201.231 48.2504 201.231Z" fill="#7A8C98"/>
<path d="M69.1216 201.223C66.0824 201.223 63.1167 199.953 61.1882 197.825C60.5167 197.083 60.573 195.938 61.3141 195.267C62.0547 194.596 63.2001 194.651 63.8718 195.393C65.1253 196.776 67.0877 197.602 69.1213 197.602C71.2392 197.602 72.7417 196.276 72.9705 194.995C73.199 193.715 72.1661 192.552 70.1369 191.803C67.2206 190.727 64.6319 189.575 64.5231 189.527C64.436 189.488 64.3521 189.442 64.2719 189.39C62.4602 188.208 61.5267 186.136 61.836 183.981C62.1677 181.67 63.8664 179.785 66.269 179.061C71.1522 177.59 75.1837 180.913 75.3531 181.056C76.1188 181.699 76.2175 182.842 75.5742 183.607C74.9327 184.371 73.7955 184.471 73.03 183.834C72.9815 183.795 70.2862 181.633 67.3138 182.529C66.2599 182.846 65.5525 183.581 65.4213 184.495C65.3189 185.209 65.5895 185.869 66.1488 186.285C66.7375 186.544 68.9774 187.515 71.3908 188.405C75.8425 190.047 76.9678 193.215 76.5363 195.631C75.9667 198.819 72.7795 201.223 69.1216 201.223Z" fill="#7A8C98"/>
</g>
<defs>
<clipPath id="clip0_613_5">
<rect width="90" height="90" fill="white" transform="translate(159 240)"/>
</clipPath>
<clipPath id="clip1_613_5">
<rect width="120" height="120" fill="white" transform="translate(288 119)"/>
</clipPath>
<clipPath id="clip2_613_5">
<rect width="120" height="120" fill="white" transform="translate(146)"/>
</clipPath>
<clipPath id="clip3_613_5">
<rect width="120" height="120" fill="white" transform="translate(0 120)"/>
</clipPath>
</defs>
</svg>
