<svg width="17" height="17" viewBox="0 0 17 17" fill="none" xmlns="http://www.w3.org/2000/svg">
<g clip-path="url(#clip0_471_298)">
<path d="M16.0264 0.643862V4.76786C16.0264 4.91638 15.9674 5.05882 15.8623 5.16384C15.7573 5.26886 15.6149 5.32786 15.4664 5.32786C15.3178 5.32786 15.1754 5.26886 15.0704 5.16384C14.9654 5.05882 14.9064 4.91638 14.9064 4.76786V1.99586L8.42157 8.48386C8.31654 8.58889 8.1741 8.64789 8.02557 8.64789C7.87704 8.64789 7.73459 8.58889 7.62957 8.48386C7.52454 8.37884 7.46554 8.23639 7.46554 8.08786C7.46554 7.93933 7.52454 7.79689 7.62957 7.69186L14.1144 1.20386H11.3424C11.1938 1.20386 11.0514 1.14486 10.9464 1.03984C10.8414 0.934822 10.7824 0.792383 10.7824 0.643862C10.7824 0.495341 10.8414 0.352903 10.9464 0.247883C11.0514 0.142862 11.1938 0.0838623 11.3424 0.0838623L15.4664 0.0838623C15.6149 0.0838623 15.7573 0.142862 15.8623 0.247883C15.9674 0.352903 16.0264 0.495341 16.0264 0.643862ZM15.4664 8.75666C15.3178 8.75666 15.1754 8.81566 15.0704 8.92068C14.9654 9.0257 14.9064 9.16814 14.9064 9.31666V13.6471C14.9062 13.9964 14.7672 14.3313 14.5202 14.5782C14.2731 14.8252 13.9381 14.9639 13.5888 14.9639H2.45197C2.10583 14.9634 1.77399 14.8257 1.52924 14.581C1.28448 14.3362 1.14679 14.0044 1.14637 13.6583V2.52226C1.14626 2.34923 1.18024 2.17788 1.24636 2.01798C1.31248 1.85808 1.40944 1.71277 1.53172 1.59034C1.65399 1.46792 1.79919 1.37078 1.959 1.30446C2.11882 1.23815 2.29014 1.20397 2.46317 1.20386H6.79357C6.94209 1.20386 7.08453 1.14486 7.18955 1.03984C7.29457 0.934822 7.35357 0.792383 7.35357 0.643862C7.35357 0.495341 7.29457 0.352903 7.18955 0.247883C7.08453 0.142862 6.94209 0.0838623 6.79357 0.0838623L2.46317 0.0838623C1.81681 0.0844982 1.19712 0.341656 0.740226 0.798852C0.283329 1.25605 0.0265789 1.8759 0.0263672 2.52226L0.0263672 13.6583C0.0270026 14.3014 0.28276 14.918 0.737511 15.3727C1.19226 15.8275 1.80885 16.0832 2.45197 16.0839H13.5888C14.235 16.0834 14.8546 15.8266 15.3117 15.3697C15.7687 14.9128 16.0257 14.2933 16.0264 13.6471V9.31666C16.0264 9.16814 15.9674 9.0257 15.8623 8.92068C15.7573 8.81566 15.6149 8.75666 15.4664 8.75666Z" fill="url(#paint0_linear_471_298)"/>
</g>
<defs>
<linearGradient id="paint0_linear_471_298" x1="0.391056" y1="2.52495" x2="17.9285" y2="17.7677" gradientUnits="userSpaceOnUse">
<stop stop-color="#7633B1"/>
<stop offset="1" stop-color="#FC17FA"/>
</linearGradient>
<clipPath id="clip0_471_298">
<rect width="16" height="16" fill="white" transform="translate(0.0263672 0.0838623)"/>
</clipPath>
</defs>
</svg>
