<svg width="120" height="120" viewBox="0 0 120 120" fill="none" xmlns="http://www.w3.org/2000/svg">
<path d="M103.951 75.6976H16.0488C11.3684 75.6976 7.56104 79.5049 7.56104 84.1854V103.515C7.56104 108.195 11.3684 112.002 16.0488 112.002H103.951C108.632 112.002 112.439 108.195 112.439 103.515V84.1854C112.439 79.5049 108.632 75.6976 103.951 75.6976ZM33.8147 103.885C33.8147 104.571 33.2586 105.127 32.5732 105.127C31.8879 105.127 31.3318 104.571 31.3318 103.885V95.4976H18.4318V103.885C18.4318 104.571 17.8757 105.127 17.1903 105.127C16.5049 105.127 15.9488 104.571 15.9488 103.885V84.6268C15.9488 83.9415 16.5049 83.3854 17.1903 83.3854C17.8757 83.3854 18.4318 83.9415 18.4318 84.6268V93.0122H31.3293V84.6268C31.3293 83.9415 31.8854 83.3854 32.5708 83.3854C33.2562 83.3854 33.8123 83.9415 33.8123 84.6268V103.885H33.8147ZM58.222 85.6927H49.8244V103.59C49.8244 104.276 49.2684 104.832 48.583 104.832C47.8976 104.832 47.3415 104.276 47.3415 103.59V85.6927H38.944C38.2586 85.6927 37.7025 85.1366 37.7025 84.4512C37.7025 83.7659 38.2586 83.2098 38.944 83.2098H58.2244C58.9098 83.2098 59.4659 83.7659 59.4659 84.4512C59.4659 85.1366 58.9098 85.6927 58.222 85.6927ZM85.6562 103.412C85.6562 104.1 85.1001 104.654 84.4147 104.654C83.7269 104.654 83.1732 104.1 83.1732 103.412V87.1341L75.3854 94.9195C74.9001 95.4073 74.1123 95.4073 73.6293 94.9195L65.8415 87.1341V103.412C65.8415 104.1 65.2854 104.654 64.6001 104.654C63.9147 104.654 63.3586 104.1 63.3586 103.412V84.1317C63.3586 83.6293 63.661 83.1781 64.1269 82.9829C64.5903 82.7927 65.1269 82.8976 65.4805 83.2537L74.5098 92.2854L83.5415 83.2537C83.8976 82.8976 84.4318 82.7902 84.8952 82.9829C85.361 83.1756 85.6635 83.6293 85.6635 84.1317V103.412H85.6562ZM102.812 104.339H90.783C90.0976 104.339 89.5415 103.783 89.5415 103.098V83.8171C89.5415 83.1293 90.0976 82.5756 90.783 82.5756C91.4683 82.5756 92.0244 83.1293 92.0244 83.8171V101.856H102.81C103.495 101.856 104.051 102.412 104.051 103.098C104.054 103.783 103.498 104.339 102.812 104.339ZM96.9196 25.2829H88.5488C84.6001 25.2829 81.3879 22.0732 81.3879 18.122V9.7561L96.9196 25.2829ZM88.5488 27.7683C83.2293 27.7683 78.9025 23.4415 78.9025 18.122V7.99756H29.3415C24.6464 7.99756 20.8244 11.8171 20.8244 16.5146V73.2098H98.6757V27.7683H88.5488ZM48.844 60.122C49.3757 60.5537 49.4537 61.3366 49.0196 61.8683C48.7732 62.1683 48.4147 62.322 48.0562 62.322C47.7805 62.322 47.5025 62.2293 47.2708 62.0415L34.3269 51.4488C34.0391 51.2122 33.8708 50.861 33.8708 50.4878C33.8708 50.1146 34.0391 49.761 34.3269 49.5268L47.2708 38.9341C47.8025 38.5 48.5854 38.5781 49.0196 39.1098C49.4513 39.639 49.3757 40.422 48.844 40.8561L37.0757 50.4878L48.844 60.122ZM64.2562 38.4732L57.644 63.1512C57.4952 63.7049 56.9927 64.0707 56.444 64.0707C56.3366 64.0707 56.2293 64.0585 56.1244 64.0293C55.461 63.8537 55.0659 63.1707 55.244 62.5073L61.8562 37.8293C62.0318 37.1659 62.7147 36.7732 63.3781 36.9488C64.0415 37.1293 64.4342 37.8098 64.2562 38.4732ZM85.1732 51.4512L72.2293 62.0439C71.9976 62.2317 71.7196 62.3244 71.4415 62.3244C71.083 62.3244 70.7269 62.1707 70.4805 61.8707C70.0464 61.339 70.1244 60.5561 70.6537 60.1244L82.4244 50.4878L70.6537 40.8585C70.1244 40.4244 70.044 39.6415 70.4805 39.1122C70.9147 38.5805 71.6976 38.5024 72.2293 38.9366L85.1732 49.5293C85.461 49.7659 85.6269 50.1171 85.6269 50.4902C85.6269 50.861 85.461 51.2146 85.1732 51.4512Z" fill="url(#paint0_linear_412_572)"/>
<defs>
<linearGradient id="paint0_linear_412_572" x1="-3.04682" y1="-23.5547" x2="176.032" y2="184.164" gradientUnits="userSpaceOnUse">
<stop offset="0.209912" stop-color="#7633B1"/>
<stop offset="0.663253" stop-color="#01DBDE"/>
</linearGradient>
</defs>
</svg>
