<svg width="120" height="120" viewBox="0 0 120 120" fill="none" xmlns="http://www.w3.org/2000/svg">
<g clip-path="url(#clip0_455_180)">
<path d="M63.5163 118.598L107.781 76.6385C108.654 75.8114 109.207 74.7028 109.343 73.5081L117.079 5.69069C117.425 2.65808 115.053 0 112.001 0H7.99903C4.94649 0 2.57459 2.65808 2.92053 5.69069L10.6566 73.5081C10.7928 74.7028 11.3459 75.8111 12.2188 76.6385L56.4836 118.598C58.4552 120.467 61.5447 120.467 63.5163 118.598Z" fill="#FDB97E"/>
<path d="M112.001 0H107.303C110.355 0 112.728 2.65808 112.382 5.69069L104.645 73.5081C104.509 74.7027 103.956 75.8111 103.083 76.6385L58.8186 118.598C58.4618 118.936 58.0676 119.211 57.6511 119.427C59.5374 120.404 61.9016 120.129 63.5164 118.598L107.781 76.6385C108.654 75.8113 109.207 74.703 109.343 73.5081L117.079 5.69069C117.425 2.65808 115.054 0 112.001 0Z" fill="#FEA95C"/>
<path d="M20.4686 70.3456L13.9079 12.8324C13.7752 11.6684 14.6853 10.6484 15.8567 10.6484H104.143C105.314 10.6484 106.225 11.6684 106.092 12.8321L99.5312 70.3456C99.479 70.8041 99.2666 71.2295 98.9317 71.5468L61.3492 107.172C60.5926 107.889 59.4069 107.889 58.6504 107.172L21.0679 71.5468C20.7332 71.2295 20.5211 70.8041 20.4686 70.3456Z" fill="#F5F8F9"/>
<path d="M104.143 10.6484H98.1654C99.3368 10.6484 100.247 11.6684 100.114 12.8321L93.5538 70.3456C93.5015 70.8041 93.2892 71.2295 92.9542 71.5468L57.0112 105.618L58.6507 107.172C59.4073 107.889 60.593 107.889 61.3496 107.172L98.9318 71.5468C99.2667 71.2295 99.4791 70.8041 99.5313 70.3456L106.092 12.8324C106.225 11.6684 105.314 10.6484 104.143 10.6484Z" fill="#E8EDF2"/>
<path d="M51.9905 43.6861C51.4196 43.6861 50.858 43.4171 50.5058 42.9141L46.3079 36.9221C45.871 36.2982 45.871 35.4678 46.3079 34.8439L50.5058 28.8521C51.0795 28.0331 52.2092 27.8339 53.0279 28.4081C53.847 28.9821 54.0458 30.1114 53.4718 30.9303L50.0016 35.8831L53.4718 40.8361C54.0458 41.6553 53.847 42.7845 53.0279 43.3582C52.7119 43.5795 52.3491 43.6861 51.9905 43.6861Z" fill="#7A8C98"/>
<path d="M68.0095 43.686C67.6506 43.686 67.2883 43.5796 66.9719 43.3581C66.1528 42.7841 65.954 41.6549 66.528 40.836L69.9981 35.8829L66.528 30.9301C65.954 30.111 66.1528 28.9818 66.9719 28.408C67.791 27.8343 68.9205 28.0328 69.494 28.8519L73.6919 34.8437C74.1288 35.4676 74.1288 36.298 73.6919 36.9219L69.494 42.9139C69.142 43.4167 68.5804 43.686 68.0095 43.686Z" fill="#7A8C98"/>
<path d="M57.2495 43.3989C56.9849 43.3989 56.7163 43.3408 56.4623 43.2175C55.562 42.782 55.1851 41.699 55.6211 40.7988L61.1411 29.3892C61.5761 28.4889 62.6591 28.1113 63.5598 28.5478C64.4601 28.9832 64.8369 30.0663 64.4012 30.9665L58.8812 42.3761C58.5683 43.0225 57.9222 43.3989 57.2495 43.3989Z" fill="#7A8C98"/>
<path d="M71.8788 21.9048H48.1213C47.121 21.9048 46.3105 21.0941 46.3105 20.094C46.3105 19.0937 47.1213 18.2832 48.1213 18.2832H71.8788C72.8791 18.2832 73.6896 19.0939 73.6896 20.094C73.6898 21.0941 72.8791 21.9048 71.8788 21.9048Z" fill="#7A8C98"/>
<path d="M117.175 87.7869H2.82472C1.2647 87.7869 0 86.5222 0 84.9622V54.9478C0 53.3877 1.2647 52.123 2.82472 52.123H117.176C118.736 52.123 120 53.3877 120 54.9478V84.9622C120 86.5222 118.735 87.7869 117.175 87.7869Z" fill="#FEDBBD"/>
<path d="M113.602 52.123V87.7869H117.176C118.736 87.7869 120 86.5222 120 84.9622V54.9478C120 53.3877 118.736 52.123 117.176 52.123H113.602Z" fill="#FECA9C"/>
<path d="M12.6054 71.7656H9.18871C8.1884 71.7656 7.37793 70.9549 7.37793 69.9548C7.37793 68.9545 8.18863 68.144 9.18871 68.144H12.6052C13.6055 68.144 14.416 68.9547 14.416 69.9548C14.4162 70.9549 13.6055 71.7656 12.6054 71.7656Z" fill="#FEA95C"/>
<path d="M110.811 71.7656H107.395C106.394 71.7656 105.584 70.9549 105.584 69.9548C105.584 68.9545 106.394 68.144 107.395 68.144H110.811C111.811 68.144 112.622 68.9547 112.622 69.9548C112.622 70.9549 111.811 71.7656 110.811 71.7656Z" fill="#FEA95C"/>
<path d="M60 98.2186C58.9997 98.2186 58.1892 97.4079 58.1892 96.4078V94.2952C58.1892 93.2948 58.9999 92.4844 60 92.4844C61.0001 92.4844 61.8108 93.2951 61.8108 94.2952V96.4078C61.8108 97.4079 61.0001 98.2186 60 98.2186Z" fill="#FEA95C"/>
<path d="M70.5456 81.3819C69.5795 81.3819 68.7255 80.7683 68.4175 79.8519C68.4105 79.8304 68.4037 79.809 68.3971 79.7872L64.5463 66.7338L62.1983 79.7422C62.0206 80.7266 61.0777 81.3798 60.0945 81.2026C59.1103 81.0248 58.4564 80.083 58.6341 79.0989L62.0145 60.3702C62.2109 59.3488 63.0556 58.6023 64.0726 58.5336C65.0849 58.4661 66.0264 59.0919 66.3514 60.058C66.3587 60.0796 66.3655 60.1012 66.3721 60.1232L70.5231 74.1941L74.5289 60.1424C74.535 60.1213 74.5413 60.1007 74.5479 60.0798C74.8629 59.1102 75.7952 58.4769 76.8103 58.5311C77.8277 58.5885 78.6802 59.3258 78.8836 60.3245L82.4682 79.0804C82.6562 80.0629 82.0119 81.0112 81.0296 81.1989C80.0489 81.388 79.0988 80.7428 78.911 79.7603L76.4191 66.7219L72.7005 79.7666C72.6946 79.7875 72.6883 79.8081 72.6815 79.8287C72.3817 80.7524 71.5286 81.3763 70.5578 81.3815C70.5538 81.3819 70.5496 81.3819 70.5456 81.3819Z" fill="#7A8C98"/>
<path d="M90.9353 81.3827C88.8175 81.3827 88.6945 81.3611 88.566 81.3394C87.6972 81.1898 87.0623 80.4363 87.0623 79.5546V60.3386C87.0623 59.3383 87.873 58.5278 88.8731 58.5278C89.8732 58.5278 90.6839 59.3385 90.6839 60.3386V77.7599H90.7C92.0088 77.7599 93.8709 77.7534 95.5974 77.7438H95.6077C96.6031 77.7438 97.4126 78.5479 97.4182 79.5445C97.4239 80.5446 96.6178 81.3597 95.6175 81.3656C93.4434 81.3778 91.957 81.3827 90.9353 81.3827Z" fill="#7A8C98"/>
<path d="M24.3923 81.382C23.392 81.382 22.5815 80.5713 22.5815 79.5712V60.3391C22.5815 59.3388 23.3923 58.5283 24.3923 58.5283C25.3927 58.5283 26.2031 59.339 26.2031 60.3391V79.5712C26.2031 80.5713 25.3927 81.382 24.3923 81.382Z" fill="#7A8C98"/>
<path d="M37.7012 81.382C36.7009 81.382 35.8904 80.5713 35.8904 79.5712V60.3391C35.8904 59.3388 36.7011 58.5283 37.7012 58.5283C38.7015 58.5283 39.512 59.339 39.512 60.3391V79.5712C39.512 80.5713 38.7015 81.382 37.7012 81.382Z" fill="#7A8C98"/>
<path d="M37.7011 71.436H24.3923C23.392 71.436 22.5815 70.6253 22.5815 69.6252C22.5815 68.6252 23.3922 67.8145 24.3923 67.8145H37.7011C38.7014 67.8145 39.5119 68.6252 39.5119 69.6252C39.5119 70.6253 38.7014 71.436 37.7011 71.436Z" fill="#7A8C98"/>
<path d="M56.7095 62.1494H46.0886C45.0883 62.1494 44.2778 61.3387 44.2778 60.3386C44.2778 59.3383 45.0885 58.5278 46.0886 58.5278H56.7095C57.7099 58.5278 58.5203 59.3385 58.5203 60.3386C58.5203 61.3389 57.7096 62.1494 56.7095 62.1494Z" fill="#7A8C98"/>
<path d="M51.3777 81.382C50.3774 81.382 49.5669 80.5712 49.5669 79.5712V60.9529C49.5669 59.9526 50.3776 59.1421 51.3777 59.1421C52.378 59.1421 53.1885 59.9528 53.1885 60.9529V79.5712C53.1887 80.5712 52.378 81.382 51.3777 81.382Z" fill="#7A8C98"/>
</g>
<defs>
<clipPath id="clip0_455_180">
<rect width="120" height="120" fill="white"/>
</clipPath>
</defs>
</svg>
