<svg width="120" height="120" viewBox="0 0 120 120" fill="none" xmlns="http://www.w3.org/2000/svg">
<path d="M97.3585 25.2854H88.9878C85.039 25.2854 81.8268 22.0756 81.8268 18.1244V9.7561L97.3585 25.2854ZM88.9878 27.7707C83.6683 27.7707 79.3415 23.4439 79.3415 18.1244V8H29.7805C25.0854 8 21.2634 11.8195 21.2634 16.5171V73.2122H99.1146V27.7707H88.9878ZM45.4415 52.1439V59.4268C45.4415 60.7488 46.5171 61.8244 47.839 61.8244H51.478C52.1634 61.8244 52.7195 62.378 52.7195 63.0659C52.7195 63.7512 52.1634 64.3073 51.478 64.3073H47.839C45.1439 64.3073 42.9561 62.1146 42.9561 59.4244V52.1415C42.9561 50.8195 41.8805 49.7439 40.5585 49.7439C39.8732 49.7439 39.3171 49.1902 39.3171 48.5024C39.3171 47.8171 39.8732 47.261 40.5585 47.261C41.8805 47.261 42.9561 46.1878 42.9561 44.8659V37.5829C42.9561 34.8902 45.1463 32.7 47.839 32.7H51.478C52.1634 32.7 52.7195 33.2561 52.7195 33.9415C52.7195 34.6268 52.1634 35.1829 51.478 35.1829H47.839C46.5171 35.1829 45.4415 36.2585 45.4415 37.5805V44.8634C45.4415 46.3073 44.8098 47.6073 43.8098 48.5024C44.8098 49.3976 45.4415 50.7 45.4415 52.1439ZM79.8219 49.7439C78.5 49.7439 77.4244 50.8195 77.4244 52.1415V59.4244C77.4244 62.1171 75.2341 64.3073 72.5415 64.3073H68.9C68.2146 64.3073 67.6585 63.7512 67.6585 63.0659C67.6585 62.378 68.2146 61.8244 68.9 61.8244H72.5415C73.8634 61.8244 74.939 60.7488 74.939 59.4268V52.1439C74.939 50.7 75.5707 49.3976 76.5707 48.5024C75.5683 47.6073 74.939 46.3073 74.939 44.8634V37.5805C74.939 36.2585 73.8634 35.1829 72.5415 35.1829H68.9C68.2146 35.1829 67.6585 34.6268 67.6585 33.9415C67.6585 33.2561 68.2146 32.7 68.9 32.7H72.5415C75.2366 32.7 77.4244 34.8927 77.4244 37.5829V44.8659C77.4244 46.1878 78.5 47.261 79.8219 47.261C80.5073 47.261 81.0634 47.8171 81.0634 48.5024C81.0634 49.1902 80.5073 49.7439 79.8219 49.7439ZM104.39 75.6976H16.4878C11.8073 75.6976 8 79.5049 8 84.1854V103.515C8 108.195 11.8073 112.005 16.4878 112.005H104.39C109.071 112.005 112.878 108.195 112.878 103.515V84.1854C112.878 79.5049 109.071 75.6976 104.39 75.6976ZM58.1122 99.2415C58.1122 103.544 54.6122 107.044 50.3146 107.044H50.0073C45.8756 107.044 42.5146 103.68 42.5146 99.5512C42.5146 98.8659 43.0707 98.3098 43.7561 98.3098C44.4415 98.3098 44.9976 98.8659 44.9976 99.5512C44.9976 102.312 47.2439 104.559 50.0049 104.559H50.3122C53.2415 104.559 55.6268 102.176 55.6268 99.2415V83.1244C55.6268 82.439 56.1829 81.8829 56.8683 81.8829C57.5561 81.8829 58.1098 82.439 58.1098 83.1244V99.2415H58.1122ZM71.1488 92.6073C75.1268 92.6073 78.3659 95.8463 78.3659 99.8244C78.3659 103.802 75.1268 107.041 71.1488 107.041C67.1707 107.041 63.9317 103.802 63.9317 99.8244C63.9317 99.139 64.4878 98.5829 65.1732 98.5829C65.8585 98.5829 66.4146 99.139 66.4146 99.8244C66.4146 102.434 68.5366 104.556 71.1463 104.556C73.7561 104.556 75.878 102.434 75.878 99.8244C75.878 97.2146 73.7561 95.0927 71.1463 95.0927C67.1683 95.0927 63.9293 91.8561 63.9293 87.8756C63.9293 83.8976 67.1683 80.6585 71.1463 80.6585C75.1244 80.6585 78.3634 83.8976 78.3634 87.8756C78.3634 88.5634 77.8073 89.1171 77.1219 89.1171C76.4366 89.1171 75.8805 88.5634 75.8805 87.8756C75.8805 85.2683 73.7585 83.1439 71.1488 83.1439C68.539 83.1439 66.4171 85.2683 66.4171 87.8756C66.4171 90.4854 68.539 92.6073 71.1488 92.6073Z" fill="url(#paint0_linear_412_570)"/>
<defs>
<linearGradient id="paint0_linear_412_570" x1="-2.60785" y1="-23.5523" x2="176.471" y2="184.167" gradientUnits="userSpaceOnUse">
<stop offset="0.209912" stop-color="#7633B1"/>
<stop offset="0.663253" stop-color="#01DBDE"/>
</linearGradient>
</defs>
</svg>
