<svg width="120" height="120" viewBox="0 0 120 120" fill="none" xmlns="http://www.w3.org/2000/svg">
<g clip-path="url(#clip0_455_223)">
<path d="M63.5163 118.598L107.781 76.6385C108.654 75.8112 109.207 74.7028 109.343 73.5082L117.079 5.69086C117.425 2.65805 115.053 0 112.001 0H7.9992C4.9467 0 2.57459 2.65805 2.92053 5.69086L10.6565 73.5082C10.7927 74.7028 11.3458 75.8114 12.2187 76.6385L56.4834 118.598C58.4552 120.467 61.5447 120.467 63.5163 118.598Z" fill="#FFE177"/>
<path d="M112.001 0H107.303C110.355 0 112.727 2.65805 112.381 5.69086L104.645 73.5084C104.509 74.703 103.956 75.8114 103.083 76.6387L58.8185 118.598C58.4618 118.936 58.0676 119.211 57.6511 119.427C59.5374 120.404 61.9015 120.129 63.5166 118.598L107.781 76.6385C108.654 75.8114 109.207 74.7028 109.343 73.5082L117.079 5.69063C117.425 2.65805 115.053 0 112.001 0Z" fill="#FFD15B"/>
<path d="M20.4688 70.3454L13.9081 12.8319C13.7755 11.6679 14.6856 10.6479 15.857 10.6479H104.143C105.315 10.6479 106.225 11.6679 106.092 12.8319L99.5317 70.3454C99.4794 70.8038 99.267 71.2292 98.9321 71.5465L61.3496 107.172C60.5931 107.889 59.4074 107.889 58.6508 107.172L21.0683 71.5465C20.7334 71.2292 20.5213 70.8038 20.4688 70.3454Z" fill="#F5F8F9"/>
<path d="M104.143 10.6484H98.1651C99.3365 10.6484 100.247 11.6684 100.114 12.8323L93.5536 70.3459C93.5013 70.8043 93.289 71.2297 92.954 71.547L57.0112 105.618L58.6507 107.172C59.4072 107.889 60.5929 107.889 61.3495 107.172L98.932 71.5468C99.2669 71.2295 99.4793 70.8041 99.5315 70.3456L106.092 12.8321C106.225 11.6682 105.315 10.6484 104.143 10.6484Z" fill="#E8EDF2"/>
<path d="M51.9908 43.6865C51.4198 43.6865 50.8583 43.4175 50.506 42.9145L46.3081 36.9227C45.8713 36.2988 45.8713 35.4684 46.3081 34.8445L50.506 28.8525C51.0798 28.0338 52.2092 27.8344 53.0284 28.4086C53.8475 28.9826 54.0463 30.1118 53.4723 30.9309L50.0021 35.884L53.4723 40.8368C54.0463 41.6559 53.8475 42.7851 53.0284 43.3591C52.712 43.5799 52.3496 43.6865 51.9908 43.6865Z" fill="#7A8C98"/>
<path d="M68.0097 43.6864C67.6509 43.6864 67.2885 43.58 66.9721 43.3585C66.153 42.7845 65.9542 41.6553 66.5282 40.8361L69.9984 35.8833L66.5282 30.9303C65.9542 30.1111 66.153 28.9819 66.9721 28.4079C67.7915 27.8342 68.9207 28.0329 69.4945 28.8518L73.6924 34.8439C74.1292 35.4678 74.1292 36.2982 73.6924 36.9221L69.4945 42.9139C69.1422 43.4171 68.5802 43.6861 68.0097 43.6864Z" fill="#7A8C98"/>
<path d="M57.2494 43.3996C56.9847 43.3996 56.7162 43.3415 56.4621 43.2182C55.5619 42.7828 55.185 41.6997 55.6207 40.7995L61.1407 29.3896C61.5757 28.4894 62.6587 28.1118 63.5594 28.5482C64.4597 28.9837 64.8365 30.0668 64.4008 30.967L58.8808 42.3768C58.5684 43.0232 57.9222 43.3996 57.2494 43.3996Z" fill="#7A8C98"/>
<path d="M71.8788 21.9048H48.1213C47.121 21.9048 46.3105 21.0941 46.3105 20.094C46.3105 19.0937 47.1212 18.2832 48.1213 18.2832H71.8788C72.8791 18.2832 73.6895 19.0939 73.6895 20.094C73.6895 21.0941 72.8788 21.9048 71.8788 21.9048Z" fill="#7A8C98"/>
<path d="M110.321 87.787H9.67945C4.33359 87.787 0 83.4534 0 78.1075V61.803C0 56.4571 4.33359 52.1235 9.67945 52.1235H110.32C115.666 52.1235 120 56.4571 120 61.803V78.1075C120 83.4534 115.666 87.787 110.321 87.787Z" fill="#FFF3BE"/>
<path d="M110.32 52.123H103.68C109.026 52.123 113.36 56.4566 113.36 61.8027V78.1073C113.36 83.4531 109.027 87.7867 103.68 87.7867H110.32C115.666 87.7867 120 83.4531 120 78.1073V61.8027C120 56.4566 115.666 52.123 110.32 52.123Z" fill="#FEDBA6"/>
<path d="M30.7141 71.7656H27.2976C26.2973 71.7656 25.4868 70.9549 25.4868 69.9548C25.4868 68.9547 26.2975 68.144 27.2976 68.144H30.7141C31.7144 68.144 32.5249 68.9547 32.5249 69.9548C32.5249 70.9549 31.7144 71.7656 30.7141 71.7656Z" fill="#FFD15B"/>
<path d="M92.7026 71.7656H89.2861C88.2858 71.7656 87.4753 70.9549 87.4753 69.9548C87.4753 68.9547 88.286 68.144 89.2861 68.144H92.7026C93.7029 68.144 94.5134 68.9547 94.5134 69.9548C94.5134 70.9549 93.7029 71.7656 92.7026 71.7656Z" fill="#FFD15B"/>
<path d="M60 98.2186C58.9997 98.2186 58.1892 97.4079 58.1892 96.4078V94.2952C58.1892 93.2948 58.9999 92.4844 60 92.4844C61.0001 92.4844 61.8108 93.2951 61.8108 94.2952V96.4078C61.8108 97.4079 61.0001 98.2186 60 98.2186Z" fill="#FFD15B"/>
<path d="M48.2504 81.2311C46.3622 81.2311 44.7406 80.1883 43.9022 79.345C43.1975 78.6356 43.201 77.4888 43.9102 76.7838C44.6164 76.0825 45.7552 76.0823 46.4609 76.7817C46.5362 76.8539 47.8224 78.0609 49.0254 77.3925C49.6505 77.0454 50.0391 76.3643 50.0391 75.6147V60.4973C50.0391 59.497 50.8498 58.6865 51.8499 58.6865C52.8502 58.6865 53.6607 59.4972 53.6607 60.4973V75.6147C53.6607 77.6791 52.5582 79.5733 50.783 80.5591C49.9175 81.0396 49.0594 81.2311 48.2504 81.2311Z" fill="#7A8C98"/>
<path d="M69.1216 81.2232C66.0824 81.2232 63.1167 79.9527 61.1882 77.8246C60.5167 77.0835 60.573 75.9383 61.3141 75.2668C62.0547 74.5956 63.2001 74.6514 63.8718 75.3927C65.1253 76.7757 67.0877 77.6017 69.1213 77.6017C71.2392 77.6017 72.7417 76.2763 72.9705 74.995C73.199 73.7148 72.1661 72.5516 70.1369 71.803C67.2206 70.7272 64.6319 69.5753 64.5231 69.5268C64.436 69.4879 64.3521 69.4421 64.2719 69.3896C62.4602 68.2084 61.5267 66.1356 61.836 63.9807C62.1677 61.6698 63.8664 59.7847 66.269 59.0607C71.1522 57.59 75.1837 60.9135 75.3531 61.0557C76.1188 61.6993 76.2175 62.8417 75.5742 63.6071C74.9327 64.3705 73.7955 64.471 73.03 63.8343C72.9815 63.7946 70.2862 61.6335 67.3138 62.5288C66.2599 62.8461 65.5525 63.5814 65.4213 64.4954C65.3189 65.2091 65.5895 65.8691 66.1488 66.2851C66.7375 66.5436 68.9774 67.5149 71.3908 68.4053C75.8425 70.0473 76.9678 73.2146 76.5363 75.6313C75.9667 78.819 72.7795 81.2232 69.1216 81.2232Z" fill="#7A8C98"/>
</g>
<defs>
<clipPath id="clip0_455_223">
<rect width="120" height="120" fill="white"/>
</clipPath>
</defs>
</svg>
