<svg width="325" height="42" viewBox="0 0 325 42" fill="none" xmlns="http://www.w3.org/2000/svg">
<path d="M235.512 35.0643C235.512 33.9906 235.775 33.0136 236.301 32.1335C236.827 31.2358 237.537 30.5229 238.431 29.9948C239.325 29.4491 240.307 29.1763 241.377 29.1763C242.464 29.1763 243.446 29.4491 244.322 29.9948C245.216 30.5229 245.926 31.2358 246.452 32.1335C246.978 33.0136 247.241 33.9906 247.241 35.0643C247.241 36.1205 246.978 37.0974 246.452 37.9952C245.926 38.8929 245.216 39.6058 244.322 40.1339C243.446 40.6796 242.464 40.9524 241.377 40.9524C240.307 40.9524 239.325 40.6796 238.431 40.1339C237.537 39.6058 236.827 38.8929 236.301 37.9952C235.775 37.0974 235.512 36.1205 235.512 35.0643Z" fill="url(#paint0_linear_426_2)"/>
<path d="M268.287 0L276.597 0.871327V40.0547H269.234L268.813 36.9654C268.041 38.0568 267.016 38.9985 265.736 39.7906C264.456 40.5651 262.904 40.9524 261.081 40.9524C258.766 40.9524 256.847 40.3275 255.321 39.0777C253.813 37.8279 252.682 36.0853 251.929 33.8498C251.192 31.5966 250.824 28.965 250.824 25.955C250.824 23.0682 251.271 20.507 252.165 18.2715C253.059 16.0359 254.339 14.2845 256.005 13.0171C257.671 11.7321 259.652 11.0896 261.949 11.0896C263.193 11.0896 264.351 11.3097 265.42 11.7497C266.49 12.1898 267.445 12.8323 268.287 13.6772V0ZM264.184 17.1889C262.746 17.1889 261.589 17.8754 260.713 19.2484C259.836 20.6038 259.398 22.8569 259.398 26.0078C259.398 28.3137 259.582 30.1092 259.95 31.3942C260.318 32.6616 260.827 33.5505 261.475 34.061C262.124 34.5715 262.869 34.8267 263.711 34.8267C264.64 34.8267 265.482 34.5363 266.235 33.9554C267.007 33.3745 267.691 32.5824 268.287 31.579V19.486C267.708 18.7643 267.095 18.2011 266.446 17.7962C265.797 17.3913 265.043 17.1889 264.184 17.1889Z" fill="url(#paint1_linear_426_2)"/>
<path d="M282.731 28.4634C282.924 29.9948 283.318 31.2358 283.914 32.1863C284.528 33.1192 285.308 33.8057 286.255 34.2458C287.202 34.6683 288.263 34.8795 289.437 34.8795C290.717 34.8795 291.953 34.6683 293.146 34.2458C294.338 33.8233 295.486 33.2601 296.591 32.556L299.931 37.0974C298.616 38.224 297.02 39.1481 295.144 39.8698C293.286 40.5915 291.164 40.9524 288.78 40.9524C285.589 40.9524 282.915 40.3187 280.759 39.0513C278.602 37.7663 276.98 36.0061 275.893 33.7705C274.806 31.535 274.263 28.965 274.263 26.0606C274.263 23.297 274.789 20.7886 275.841 18.5355C276.892 16.2648 278.427 14.4605 280.443 13.1227C282.477 11.7673 284.958 11.0896 287.886 11.0896C290.551 11.0896 292.856 11.6617 294.802 12.8059C296.766 13.95 298.283 15.5959 299.352 17.7434C300.439 19.8909 300.983 22.4697 300.983 25.4797C300.983 25.955 300.965 26.4655 300.93 27.0111C300.913 27.5568 300.878 28.0409 300.825 28.4634H282.731ZM287.886 16.6872C286.395 16.6872 285.194 17.2241 284.283 18.2979C283.371 19.3716 282.819 21.0879 282.626 23.4466H292.883C292.865 21.4047 292.471 19.7677 291.699 18.5355C290.928 17.3033 289.656 16.6872 287.886 16.6872Z" fill="url(#paint2_linear_426_2)"/>
<path d="M325 12.0138L315.69 40.0547H305.907L296.491 12.0138H305.459L310.903 33.6649L316.584 12.0138H325Z" fill="url(#paint3_linear_426_2)"/>
<path d="M22.302 39.5596C21.3902 40.1581 20.2857 40.6157 18.9882 40.9326C17.6908 41.2494 16.4898 41.4079 15.3852 41.4079C12.615 41.4079 10.4409 40.6685 8.86293 39.1899C7.30249 37.7113 6.52227 35.8542 6.52227 33.6187V15.9017H0V13.1557H6.52227V6.76599L9.78341 6.36993V13.1557H19.5142L19.0671 15.9017H9.78341V33.5395C9.78341 35.1413 10.213 36.3823 11.0721 37.2625C11.9487 38.125 13.4127 38.5562 15.4641 38.5562C16.5161 38.5562 17.4892 38.433 18.3833 38.1866C19.2775 37.9401 20.1103 37.6145 20.8818 37.2096L22.302 39.5596Z" fill="url(#paint4_linear_426_2)"/>
<path d="M38.8238 38.3978C40.2966 38.3978 41.6554 38.169 42.9002 37.7113C44.1626 37.2536 45.3022 36.664 46.3191 35.9423L48.0286 38.1602C46.8188 39.1811 45.3724 39.982 43.6892 40.5629C42.006 41.1262 40.4281 41.4079 38.9553 41.4079C36.2727 41.4079 33.9935 40.827 32.1174 39.6652C30.2589 38.4858 28.8388 36.8224 27.8569 34.6749C26.8926 32.5274 26.4104 30.0102 26.4104 27.1234C26.4104 24.3774 26.8926 21.913 27.8569 19.7303C28.8388 17.5476 30.2589 15.8225 32.1174 14.5551C33.9935 13.2877 36.2815 12.6541 38.9816 12.6541C40.6472 12.6541 42.234 12.9181 43.7418 13.4462C45.2672 13.9742 46.6698 14.7576 47.9497 15.7961L46.2139 18.1461C44.9691 17.2835 43.733 16.641 42.5057 16.2186C41.2959 15.7785 40.0686 15.5585 38.8238 15.5585C36.2815 15.5585 34.1775 16.5266 32.5119 18.4629C30.8638 20.3992 30.0398 23.286 30.0398 27.1234C30.0398 29.7109 30.4167 31.8409 31.1706 33.5131C31.9246 35.1677 32.959 36.3999 34.274 37.2096C35.6065 38.0018 37.1231 38.3978 38.8238 38.3978Z" fill="url(#paint5_linear_426_2)"/>
<path d="M56.0031 1.61724V17.2483C57.0726 15.7345 58.4314 14.5903 60.0795 13.8158C61.7276 13.0413 63.3757 12.6541 65.0238 12.6541C67.794 12.6541 69.7928 13.3758 71.0201 14.8192C72.2474 16.2626 72.8611 18.2605 72.8611 20.8128V40.8798H69.5999V20.232C69.5999 18.5773 69.1528 17.3539 68.2587 16.5618C67.3645 15.7697 66.0057 15.3736 64.1823 15.3736C62.99 15.3736 61.8591 15.6377 60.7896 16.1658C59.7201 16.6938 58.7733 17.3451 57.9493 18.1196C57.1252 18.8766 56.4765 19.6247 56.0031 20.364V40.8798H52.742V2.01329L56.0031 1.61724Z" fill="url(#paint6_linear_426_2)"/>
<path d="M97.2465 35.4142C97.2465 36.5407 97.4393 37.3681 97.825 37.8961C98.2108 38.4066 98.8069 38.7851 99.6134 39.0315L98.7192 41.4343C97.6672 41.2758 96.7292 40.8886 95.9052 40.2725C95.0811 39.6564 94.5025 38.7147 94.1694 37.4473C93.2051 38.7323 91.9953 39.718 90.5401 40.4045C89.1024 41.0734 87.4718 41.4079 85.6484 41.4079C82.9132 41.4079 80.7654 40.6333 79.205 39.0843C77.6446 37.5353 76.8643 35.467 76.8643 32.8794C76.8643 30.063 77.9514 27.9067 80.1255 26.4105C82.3171 24.9142 85.4994 24.1661 89.6722 24.1661H93.8538V21.4729C93.8538 19.3078 93.2314 17.794 91.9865 16.9315C90.7592 16.0513 89.0761 15.6113 86.937 15.6113C86.0078 15.6113 84.9558 15.7169 83.7811 15.9281C82.6064 16.1394 81.3002 16.5002 79.8625 17.0107L78.9157 14.3175C80.5813 13.7014 82.0892 13.2701 83.4392 13.0237C84.8068 12.7773 86.1305 12.6541 87.4104 12.6541C90.654 12.6541 93.0999 13.455 94.748 15.0568C96.4136 16.641 97.2465 18.7445 97.2465 21.3673V35.4142ZM86.2796 38.7939C87.7874 38.7939 89.1988 38.4242 90.5138 37.6849C91.8288 36.9456 92.9421 35.9159 93.8538 34.5957V26.6745H89.2777C85.999 26.6745 83.711 27.2554 82.4135 28.4172C81.1161 29.5613 80.4674 31.0839 80.4674 32.985C80.4674 34.9037 80.9408 36.3559 81.8876 37.3417C82.8343 38.3098 84.2983 38.7939 86.2796 38.7939Z" fill="url(#paint7_linear_426_2)"/>
<path d="M104.511 40.8798V38.1338H109.008V15.9281H104.511V13.1557H111.507L112.111 19.8095C113.198 17.5564 114.496 15.7961 116.004 14.5287C117.529 13.2437 119.58 12.6012 122.158 12.6012C122.877 12.6012 123.517 12.654 124.078 12.7597C124.656 12.8653 125.261 12.9973 125.892 13.1557L124.972 16.245C124.358 16.069 123.815 15.9457 123.341 15.8753C122.885 15.7873 122.359 15.7433 121.763 15.7433C119.537 15.7433 117.643 16.509 116.083 18.0404C114.522 19.5543 113.251 21.957 112.269 25.2487V38.1338H117.95V40.8798H104.511ZM122.368 21.869V16.4562L122.579 13.1557H125.892L125.524 21.869H122.368Z" fill="url(#paint8_linear_426_2)"/>
<path d="M139.653 1.93408V34.5957C139.653 36.0391 140.109 37.06 141.02 37.6585C141.95 38.257 143.115 38.5562 144.518 38.5562C145.395 38.5562 146.219 38.4682 146.99 38.2922C147.779 38.1162 148.577 37.8697 149.384 37.5529L150.33 40.0877C149.647 40.4221 148.779 40.7214 147.727 40.9854C146.675 41.267 145.5 41.4079 144.203 41.4079C142.028 41.4079 140.179 40.8182 138.653 39.6388C137.146 38.4418 136.392 36.7608 136.392 34.5957V4.7857H127.818V1.93408H139.653Z" fill="url(#paint9_linear_426_2)"/>
<path d="M165.406 1.93408V34.5957C165.406 36.0391 165.862 37.06 166.773 37.6585C167.702 38.257 168.868 38.5562 170.271 38.5562C171.148 38.5562 171.972 38.4682 172.743 38.2922C173.532 38.1162 174.33 37.8697 175.136 37.5529L176.083 40.0877C175.399 40.4221 174.532 40.7214 173.48 40.9854C172.428 41.267 171.253 41.4079 169.955 41.4079C167.781 41.4079 165.932 40.8182 164.406 39.6388C162.898 38.4418 162.145 36.7608 162.145 34.5957V4.7857H153.571V1.93408H165.406Z" fill="url(#paint10_linear_426_2)"/>
<path d="M183.874 28.3379C183.926 30.6615 184.338 32.5714 185.11 34.0676C185.899 35.5462 186.933 36.6376 188.213 37.3417C189.493 38.0458 190.887 38.3978 192.395 38.3978C193.85 38.3978 195.139 38.1866 196.261 37.7641C197.4 37.3417 198.593 36.6992 199.837 35.8366L201.547 38.2922C200.267 39.2779 198.821 40.0437 197.208 40.5893C195.612 41.135 194.052 41.4079 192.526 41.4079C189.984 41.4079 187.801 40.8094 185.978 39.6124C184.172 38.4154 182.787 36.7432 181.822 34.5957C180.858 32.4305 180.376 29.9134 180.376 27.0442C180.376 24.2277 180.867 21.737 181.849 19.5719C182.83 17.4067 184.189 15.7169 185.925 14.5023C187.678 13.2701 189.712 12.6541 192.027 12.6541C194.271 12.6541 196.191 13.1997 197.786 14.2911C199.382 15.3824 200.6 16.9315 201.442 18.9382C202.301 20.9273 202.73 23.3036 202.73 26.0672C202.73 26.5425 202.722 26.9737 202.704 27.361C202.687 27.7307 202.669 28.0563 202.651 28.3379H183.874ZM192.105 15.7169C189.879 15.7169 188.003 16.509 186.477 18.0932C184.969 19.6775 184.119 22.1066 183.926 25.3807H199.627C199.557 22.1242 198.829 19.7039 197.444 18.1196C196.059 16.5178 194.279 15.7169 192.105 15.7169Z" fill="url(#paint11_linear_426_2)"/>
<path d="M216.149 38.4242C218.498 38.4242 220.339 37.9754 221.672 37.0776C223.022 36.1623 223.697 34.9653 223.697 33.4867C223.697 32.5714 223.548 31.7792 223.25 31.1103C222.969 30.4238 222.347 29.8166 221.382 29.2885C220.436 28.7428 218.972 28.2323 216.99 27.7571C215.009 27.2642 213.291 26.7185 211.836 26.12C210.398 25.5215 209.285 24.7382 208.496 23.7701C207.707 22.8019 207.312 21.5169 207.312 19.9151C207.312 18.3837 207.742 17.0811 208.601 16.0073C209.478 14.916 210.67 14.0887 212.178 13.5254C213.703 12.9445 215.421 12.6541 217.332 12.6541C219.489 12.6541 221.365 12.9445 222.96 13.5254C224.573 14.1063 225.924 14.8104 227.011 15.6377L225.485 18.0668C224.468 17.3451 223.337 16.7466 222.093 16.2714C220.848 15.7961 219.27 15.5585 217.359 15.5585C214.922 15.5585 213.212 15.9457 212.23 16.7202C211.248 17.4948 210.757 18.4717 210.757 19.6511C210.757 20.5664 210.994 21.3233 211.468 21.9218C211.958 22.5027 212.756 23.022 213.861 23.4796C214.965 23.9197 216.456 24.395 218.332 24.9054C220.138 25.3807 221.716 25.9528 223.066 26.6217C224.416 27.2906 225.468 28.1619 226.222 29.2357C226.975 30.3094 227.352 31.7 227.352 33.4075C227.352 35.3614 226.8 36.928 225.696 38.1074C224.609 39.2691 223.206 40.1141 221.488 40.6421C219.769 41.1526 217.981 41.4079 216.123 41.4079C213.685 41.4079 211.625 41.047 209.942 40.3253C208.277 39.6036 206.891 38.7587 205.787 37.7905L207.812 35.3878C208.899 36.3031 210.153 37.0424 211.573 37.6057C212.993 38.1514 214.518 38.4242 216.149 38.4242Z" fill="url(#paint12_linear_426_2)"/>
<defs>
<linearGradient id="paint0_linear_426_2" x1="-19.4223" y1="11.006" x2="-7.569" y2="135.438" gradientUnits="userSpaceOnUse">
<stop offset="0.263973" stop-color="#7633B1"/>
<stop offset="0.489064" stop-color="#FC17FA"/>
</linearGradient>
<linearGradient id="paint1_linear_426_2" x1="-19.4223" y1="11.006" x2="-7.569" y2="135.438" gradientUnits="userSpaceOnUse">
<stop offset="0.263973" stop-color="#7633B1"/>
<stop offset="0.489064" stop-color="#FC17FA"/>
</linearGradient>
<linearGradient id="paint2_linear_426_2" x1="-19.4223" y1="11.006" x2="-7.569" y2="135.438" gradientUnits="userSpaceOnUse">
<stop offset="0.263973" stop-color="#7633B1"/>
<stop offset="0.489064" stop-color="#FC17FA"/>
</linearGradient>
<linearGradient id="paint3_linear_426_2" x1="-19.4223" y1="11.006" x2="-7.569" y2="135.438" gradientUnits="userSpaceOnUse">
<stop offset="0.263973" stop-color="#7633B1"/>
<stop offset="0.489064" stop-color="#FC17FA"/>
</linearGradient>
<linearGradient id="paint4_linear_426_2" x1="-19.4223" y1="11.006" x2="-7.569" y2="135.438" gradientUnits="userSpaceOnUse">
<stop offset="0.263973" stop-color="#7633B1"/>
<stop offset="0.489064" stop-color="#FC17FA"/>
</linearGradient>
<linearGradient id="paint5_linear_426_2" x1="-19.4223" y1="11.006" x2="-7.569" y2="135.438" gradientUnits="userSpaceOnUse">
<stop offset="0.263973" stop-color="#7633B1"/>
<stop offset="0.489064" stop-color="#FC17FA"/>
</linearGradient>
<linearGradient id="paint6_linear_426_2" x1="-19.4223" y1="11.006" x2="-7.569" y2="135.438" gradientUnits="userSpaceOnUse">
<stop offset="0.263973" stop-color="#7633B1"/>
<stop offset="0.489064" stop-color="#FC17FA"/>
</linearGradient>
<linearGradient id="paint7_linear_426_2" x1="-19.4223" y1="11.006" x2="-7.569" y2="135.438" gradientUnits="userSpaceOnUse">
<stop offset="0.263973" stop-color="#7633B1"/>
<stop offset="0.489064" stop-color="#FC17FA"/>
</linearGradient>
<linearGradient id="paint8_linear_426_2" x1="-19.4223" y1="11.006" x2="-7.569" y2="135.438" gradientUnits="userSpaceOnUse">
<stop offset="0.263973" stop-color="#7633B1"/>
<stop offset="0.489064" stop-color="#FC17FA"/>
</linearGradient>
<linearGradient id="paint9_linear_426_2" x1="-19.4223" y1="11.006" x2="-7.569" y2="135.438" gradientUnits="userSpaceOnUse">
<stop offset="0.263973" stop-color="#7633B1"/>
<stop offset="0.489064" stop-color="#FC17FA"/>
</linearGradient>
<linearGradient id="paint10_linear_426_2" x1="-19.4223" y1="11.006" x2="-7.569" y2="135.438" gradientUnits="userSpaceOnUse">
<stop offset="0.263973" stop-color="#7633B1"/>
<stop offset="0.489064" stop-color="#FC17FA"/>
</linearGradient>
<linearGradient id="paint11_linear_426_2" x1="-19.4223" y1="11.006" x2="-7.569" y2="135.438" gradientUnits="userSpaceOnUse">
<stop offset="0.263973" stop-color="#7633B1"/>
<stop offset="0.489064" stop-color="#FC17FA"/>
</linearGradient>
<linearGradient id="paint12_linear_426_2" x1="-19.4223" y1="11.006" x2="-7.569" y2="135.438" gradientUnits="userSpaceOnUse">
<stop offset="0.263973" stop-color="#7633B1"/>
<stop offset="0.489064" stop-color="#FC17FA"/>
</linearGradient>
</defs>
</svg>
