<svg width="120" height="120" viewBox="0 0 120 120" fill="none" xmlns="http://www.w3.org/2000/svg">
<g clip-path="url(#clip0_437_62)">
<path fill-rule="evenodd" clip-rule="evenodd" d="M29.2103 91.0571V34.6899V20.1423C29.2103 12.0938 22.6618 5.54541 14.611 5.54541C6.5626 5.54541 0.0141602 12.0938 0.0141602 20.1423V91.0149C3.16885 86.3415 8.529 83.2618 14.597 83.2618C20.6837 83.2618 26.0579 86.3603 29.2103 91.0571ZM103.896 13.8353L104.063 26.8149L110.259 26.7493C111.905 26.7329 113.447 26.072 114.605 24.886C115.763 23.7001 116.388 22.1415 116.37 20.4962L116.36 19.9009C116.318 16.5188 113.534 13.7696 110.152 13.7696H110.086L103.896 13.8353ZM58.104 14.3157L58.2681 27.2438L101.109 26.7938L100.945 13.8657L58.104 14.3157ZM49.8962 17.6134L49.9782 24.1149L55.3056 26.4587L55.1626 15.1571L49.8962 17.6134ZM42.7595 20.9392L47.011 22.8095L46.9618 18.9798L42.7595 20.9392ZM56.4821 68.0954L46.4415 68.6931L45.6821 74.0485L55.2212 76.9923C55.7673 77.1587 56.1657 77.6251 56.2478 78.1899C56.4634 79.6806 56.8501 81.1478 57.3985 82.5563C57.5978 83.072 57.4923 83.6556 57.1243 84.0704L50.4446 91.5938L53.6978 95.9181L62.5243 91.2517C63.0282 90.9845 63.6423 91.0313 64.097 91.3735C65.3087 92.2782 66.6189 93.0446 67.997 93.6517C68.5032 93.8743 68.8407 94.3618 68.8735 94.9149L69.4688 104.956L74.8267 105.715L77.7681 96.1735C77.9368 95.6298 78.4032 95.2313 78.9681 95.1493C80.4587 94.9337 81.9282 94.5446 83.3345 93.9985C83.8501 93.7993 84.4337 93.9048 84.8485 94.2704L92.372 100.952L96.6962 97.6993L92.0274 88.8728C91.7626 88.3689 91.8095 87.7548 92.1517 87.2978C93.0563 86.0884 93.8228 84.7759 94.4298 83.4001C94.6524 82.8938 95.1399 82.554 95.6931 82.5212L105.734 81.9259L106.491 76.5704L96.9517 73.6267C96.4079 73.4603 96.0071 72.9938 95.9274 72.429C95.7095 70.936 95.3228 69.4665 94.7767 68.0626C94.5751 67.547 94.6806 66.961 95.0485 66.5485L101.728 59.0251L98.4774 54.7009L89.6485 59.3673C89.1446 59.6345 88.5329 59.5876 88.0759 59.2454C86.8665 58.3407 85.554 57.5743 84.1782 56.9673C83.672 56.7446 83.3321 56.2571 83.2993 55.704L82.704 45.6634L77.3462 44.9063L74.4048 54.4454C74.2384 54.9892 73.7696 55.3899 73.2071 55.4696C71.7165 55.6876 70.247 56.0743 68.8407 56.6204C68.3251 56.8196 67.7415 56.7165 67.3267 56.3485L59.8032 49.6665L55.479 52.9196L60.1454 61.7485C60.4126 62.2524 60.3657 62.8642 60.0235 63.3212C59.1189 64.5306 58.3524 65.8407 57.7454 67.2188C57.5228 67.7251 57.0353 68.0649 56.4821 68.0954ZM62.4634 75.2767C62.4821 67.7837 68.5923 61.6876 76.0876 61.6876H76.1204C83.6321 61.704 89.7282 67.8306 89.7095 75.3423C89.6931 82.8353 83.5806 88.9337 76.0876 88.9337H76.0548C72.4149 88.9243 68.9978 87.4993 66.4314 84.9212C63.8649 82.3407 62.4564 78.9165 62.4634 75.2767ZM32.161 36.1665V100.65V100.753V100.781V102.253C32.161 103.069 31.5001 103.727 30.6845 103.727H30.6142C29.7985 103.727 29.1399 103.069 29.1399 102.253C29.1399 102.094 29.1634 101.944 29.2103 101.801V100.753C29.2103 92.7353 22.6548 86.2126 14.597 86.2126C6.84619 86.2126 0.48291 92.2501 0.0141602 99.8485V101.571C0.339941 106.502 3.55557 113.482 10.0501 114.455H120.014V36.1665H32.161ZM45.061 65.8173L55.4274 65.2032C55.9173 64.2048 56.4798 63.2392 57.1103 62.3204L52.2821 53.1868C51.9423 52.5446 52.1204 51.7524 52.6993 51.3165L58.9923 46.5845C59.5548 46.1626 60.3353 46.1931 60.8603 46.6595L68.6274 53.5571C69.6798 53.1938 70.7603 52.9103 71.8524 52.704L74.897 42.8321C75.1103 42.1407 75.7946 41.7048 76.5142 41.8079L84.3118 42.9095C85.0079 43.0079 85.5376 43.5821 85.5798 44.2853L86.1938 54.6517C87.1923 55.1392 88.1579 55.7017 89.0767 56.3321L98.2103 51.504C98.8501 51.1665 99.6446 51.3423 100.081 51.9212L104.813 58.2165C105.234 58.7767 105.204 59.5595 104.738 60.0821L97.8399 67.8493C98.2032 68.9017 98.4868 69.9821 98.6931 71.0767L108.563 74.1212C109.256 74.3345 109.692 75.0189 109.589 75.736L108.485 83.536C108.389 84.2298 107.815 84.7595 107.112 84.8017L96.7454 85.4157C96.2579 86.4142 95.6954 87.3798 95.0649 88.2985L99.8931 97.4345C100.231 98.0743 100.055 98.8665 99.4759 99.3024L93.1806 104.037C92.6204 104.459 91.8399 104.426 91.3126 103.959L83.5478 97.0642C82.4954 97.4251 81.4149 97.711 80.3204 97.9149L77.2759 107.787C77.0837 108.413 76.5071 108.827 75.8673 108.827C75.7993 108.827 75.729 108.823 75.661 108.813L67.861 107.709C67.1673 107.611 66.6376 107.037 66.5954 106.336L65.9813 95.9696C64.9829 95.4798 64.0173 94.9173 63.0985 94.2868L53.9649 99.1149C53.3228 99.4548 52.5306 99.2767 52.0946 98.6977L47.3603 92.4024C46.9384 91.8423 46.9712 91.0618 47.4376 90.5368L54.3329 82.7696C53.972 81.7173 53.686 80.6368 53.4821 79.5423L43.6103 76.5001C42.9188 76.2868 42.4829 75.6001 42.5837 74.8829L43.6876 67.0853C43.786 66.3892 44.3603 65.8595 45.061 65.8173Z" fill="url(#paint0_linear_437_62)"/>
</g>
<defs>
<linearGradient id="paint0_linear_437_62" x1="-12.1232" y1="-27.4948" x2="172.266" y2="206.202" gradientUnits="userSpaceOnUse">
<stop offset="0.209912" stop-color="#7633B1"/>
<stop offset="0.663253" stop-color="#01DBDE"/>
</linearGradient>
<clipPath id="clip0_437_62">
<rect width="120" height="120" fill="white"/>
</clipPath>
</defs>
</svg>
