<svg width="90" height="90" viewBox="0 0 90 90" fill="none" xmlns="http://www.w3.org/2000/svg">
<g clip-path="url(#clip0_437_62)">
<path fill-rule="evenodd" clip-rule="evenodd" d="M21.9076 68.293V26.0176V15.1068C21.9076 9.07051 16.9962 4.15918 10.9582 4.15918C4.92183 4.15918 0.010498 9.07051 0.010498 15.1068V68.2613C2.37651 64.7562 6.39663 62.4465 10.9476 62.4465C15.5126 62.4465 19.5433 64.7703 21.9076 68.293ZM77.922 10.3766L78.0468 20.1113L82.6945 20.0621C83.9285 20.0498 85.0851 19.5541 85.9535 18.6646C86.8218 17.7752 87.2912 16.6062 87.2771 15.3723L87.2701 14.9258C87.2384 12.3893 85.1501 10.3273 82.6136 10.3273H82.5644L77.922 10.3766ZM43.5779 10.7369L43.7009 20.433L75.832 20.0955L75.7089 10.3994L43.5779 10.7369ZM37.422 13.2102L37.4835 18.0863L41.4791 19.8441L41.3718 11.368L37.422 13.2102ZM32.0695 15.7045L35.2582 17.1072L35.2212 14.235L32.0695 15.7045ZM42.3615 51.0717L34.831 51.5199L34.2615 55.5365L41.4158 57.7443C41.8253 57.8691 42.1242 58.2189 42.1857 58.6426C42.3474 59.7605 42.6375 60.8609 43.0488 61.9174C43.1982 62.3041 43.1191 62.7418 42.8431 63.0529L37.8333 68.6955L40.2732 71.9387L46.8931 68.4389C47.271 68.2385 47.7316 68.2736 48.0726 68.5303C48.9814 69.2088 49.964 69.7836 50.9976 70.2389C51.3773 70.4059 51.6304 70.7715 51.655 71.1863L52.1015 78.7168L56.1199 79.2863L58.3259 72.1303C58.4525 71.7225 58.8023 71.4236 59.2259 71.3621C60.3439 71.2004 61.446 70.9086 62.5007 70.499C62.8875 70.3496 63.3251 70.4287 63.6363 70.7029L69.2789 75.7145L72.522 73.2746L69.0205 66.6547C68.8218 66.2768 68.857 65.8162 69.1136 65.4734C69.7921 64.5664 70.3669 63.582 70.8222 62.5502C70.9892 62.1705 71.3548 61.9156 71.7697 61.891L79.3001 61.4445L79.8679 57.4279L72.7136 55.2201C72.3058 55.0953 72.0052 54.7455 71.9455 54.3219C71.782 53.2021 71.4919 52.1 71.0824 51.0471C70.9312 50.6603 71.0103 50.2209 71.2863 49.9115L76.296 44.2689L73.858 41.0258L67.2363 44.5256C66.8584 44.726 66.3996 44.6908 66.0568 44.4342C65.1498 43.7557 64.1654 43.1809 63.1335 42.7256C62.7539 42.5586 62.499 42.193 62.4744 41.7781L62.0279 34.2477L58.0095 33.6799L55.8035 40.8342C55.6787 41.242 55.3271 41.5426 54.9052 41.6023C53.7873 41.7658 52.6851 42.0559 51.6304 42.4654C51.2437 42.6148 50.806 42.5375 50.4949 42.2615L44.8523 37.25L41.6091 39.6898L45.1089 46.3115C45.3093 46.6895 45.2742 47.1482 45.0175 47.491C44.339 48.398 43.7642 49.3807 43.3089 50.4143C43.1419 50.7939 42.7763 51.0488 42.3615 51.0717ZM46.8474 56.4576C46.8615 50.8379 51.4441 46.2658 57.0656 46.2658H57.0902C62.724 46.2781 67.296 50.873 67.282 56.5068C67.2697 62.1266 62.6853 66.7004 57.0656 66.7004H57.041C54.3111 66.6934 51.7482 65.6246 49.8234 63.691C47.8986 61.7557 46.8421 59.1875 46.8474 56.4576ZM24.1207 27.125V75.4877V75.565V75.5861V76.69C24.1207 77.3018 23.625 77.7957 23.0132 77.7957H22.9605C22.3488 77.7957 21.8548 77.3018 21.8548 76.69C21.8548 76.5705 21.8724 76.458 21.9076 76.3508V75.565C21.9076 69.5516 16.991 64.6596 10.9476 64.6596C5.13452 64.6596 0.362061 69.1877 0.010498 74.8865V76.1785C0.254834 79.877 2.66655 85.1117 7.53745 85.8412H90.0105V27.125H24.1207ZM33.7957 49.3631L41.5705 48.9025C41.9378 48.1537 42.3597 47.4295 42.8326 46.7404L39.2115 39.8902C38.9566 39.4086 39.0902 38.8145 39.5244 38.4875L44.2441 34.9385C44.666 34.6221 45.2513 34.6449 45.6451 34.9947L51.4705 40.168C52.2597 39.8955 53.0701 39.6828 53.8892 39.5281L56.1726 32.1242C56.3326 31.6057 56.8458 31.2787 57.3855 31.3561L63.2337 32.1822C63.7558 32.2561 64.1531 32.6867 64.1847 33.2141L64.6453 40.9889C65.3941 41.3545 66.1183 41.7764 66.8074 42.2492L73.6576 38.6281C74.1375 38.375 74.7334 38.5068 75.0603 38.941L78.6093 43.6625C78.9257 44.0826 78.9029 44.6697 78.5531 45.0617L73.3798 50.8871C73.6523 51.6764 73.865 52.4867 74.0197 53.3076L81.4218 55.591C81.9421 55.751 82.2691 56.2643 82.1917 56.8022L81.3638 62.6522C81.2917 63.1725 80.8611 63.5697 80.3337 63.6014L72.5589 64.0619C72.1933 64.8107 71.7714 65.535 71.2986 66.224L74.9197 73.076C75.1728 73.5559 75.041 74.15 74.6068 74.477L69.8853 78.0277C69.4652 78.3441 68.8798 78.3195 68.4843 77.9697L62.6607 72.7982C61.8714 73.0689 61.0611 73.2834 60.2402 73.4363L57.9568 80.8402C57.8126 81.3096 57.3802 81.6207 56.9003 81.6207C56.8494 81.6207 56.7966 81.6172 56.7457 81.6102L50.8957 80.7822C50.3753 80.7084 49.9781 80.2777 49.9464 79.7521L49.4859 71.9773C48.7371 71.61 48.0128 71.1881 47.3238 70.7152L40.4736 74.3363C39.9919 74.5912 39.3978 74.4576 39.0709 74.0234L35.5201 69.302C35.2037 68.8818 35.2283 68.2965 35.5781 67.9027L40.7496 62.0773C40.4789 61.2881 40.2644 60.4777 40.1115 59.6568L32.7076 57.3752C32.189 57.2152 31.8621 56.7002 31.9376 56.1623L32.7656 50.3141C32.8394 49.792 33.2701 49.3947 33.7957 49.3631Z" fill="url(#paint0_linear_437_62)"/>
</g>
<defs>
<linearGradient id="paint0_linear_437_62" x1="-9.09252" y1="-20.6209" x2="129.2" y2="154.652" gradientUnits="userSpaceOnUse">
<stop offset="0.209912" stop-color="#7633B1"/>
<stop offset="0.663253" stop-color="#01DBDE"/>
</linearGradient>
<clipPath id="clip0_437_62">
<rect width="90" height="90" fill="white"/>
</clipPath>
</defs>
</svg>
