<svg width="90" height="90" viewBox="0 0 90 90" fill="none" xmlns="http://www.w3.org/2000/svg">
<g clip-path="url(#clip0_455_125)">
<path d="M0.00146484 44.9985C0.00146484 62.8092 10.3511 78.2031 25.3618 85.4943L3.89602 26.6855C1.40223 32.2799 0.00146484 38.4737 0.00146484 44.9985Z" fill="#1C769B"/>
<path d="M45.7898 48.9336L32.2874 88.1665C36.3213 89.3525 40.5816 89.9999 45.0002 89.9999C50.2389 89.9999 55.2656 89.0941 59.9426 87.4494C59.8236 87.2549 59.7118 87.0532 59.6218 86.8296L45.7898 48.9336Z" fill="#1C769B"/>
<path d="M75.3785 42.7297C75.3785 37.1659 73.3782 33.3163 71.6683 30.3203C69.385 26.6087 67.2453 23.4704 67.2453 19.766C67.2453 15.6276 70.3822 11.7766 74.8022 11.7766C75.0025 11.7766 75.1912 11.8041 75.3828 11.8143C67.3833 4.47808 56.7142 0 45.0001 0C29.2767 0 15.4491 8.06635 7.40454 20.2813C8.46128 20.3147 9.4556 20.3364 10.299 20.3364C15.0035 20.3364 22.2933 19.7645 22.2933 19.7645C24.7174 19.6194 25.0019 23.1859 22.5778 23.4704C22.5778 23.4704 20.1406 23.7578 17.4276 23.9015L33.8143 72.6407L43.6632 43.1072L36.6565 23.9015C34.2295 23.7578 31.9331 23.4704 31.9331 23.4704C29.509 23.3267 29.792 19.6208 32.2205 19.7645C32.2205 19.7645 39.6511 20.3364 44.0726 20.3364C48.7785 20.3364 56.0654 19.7645 56.0654 19.7645C58.4924 19.6194 58.7769 23.1859 56.3514 23.4704C56.3514 23.4704 53.9113 23.7578 51.2026 23.9015L67.4645 72.2706L71.9571 57.2744C73.895 51.0472 75.3785 46.5793 75.3785 42.7297Z" fill="#1C769B"/>
<path d="M84.7919 28.0368C84.7919 32.6019 83.9384 37.7347 81.3677 44.155L67.6243 83.8916C81.0019 76.0938 89.9987 61.5984 89.9987 44.9998C89.9987 37.1744 87.9999 29.8193 84.4871 23.4092C84.6831 24.8433 84.7919 26.3791 84.7919 28.0368Z" fill="#1C769B"/>
<path d="M67.2468 19.7645C67.2468 15.6261 70.3836 11.7751 74.8037 11.7751C75.004 11.7751 75.1927 11.8027 75.3843 11.8128C67.3833 4.47808 56.7142 0 45.0001 0C29.2767 0 15.4491 8.06635 7.40454 20.2813C8.46128 20.3147 9.4556 20.3364 10.299 20.3364C15.0035 20.3364 22.2933 19.7645 22.2933 19.7645C24.7174 19.6194 25.0019 23.1859 22.5778 23.4704C22.5778 23.4704 20.1406 23.7578 17.4276 23.9015L23.6766 42.4873C27.9282 43.9883 32.5341 44.8142 37.3445 44.8142C39.3463 44.8142 41.3131 44.6705 43.2365 44.3962L43.6647 43.1086L36.658 23.9029C34.2309 23.7592 31.9346 23.4718 31.9346 23.4718C29.5104 23.3281 29.7935 19.6223 32.222 19.766C32.222 19.766 39.6525 20.3379 44.074 20.3379C48.78 20.3379 56.0668 19.766 56.0668 19.766C58.4939 19.6208 58.7784 23.1873 56.3528 23.4718C56.3528 23.4718 53.9127 23.7592 51.2041 23.9029L56.6184 40.0095C62.1141 37.0541 66.7707 32.8809 70.1659 27.8744C68.53 25.1585 67.2468 22.6299 67.2468 19.7645Z" fill="#2795B7"/>
<path d="M44.9999 0C30.8805 0 18.3042 6.51753 10.0535 16.6901C17.2953 18.1954 25.2485 19.03 33.595 19.03C49.3996 19.03 63.7992 16.0442 74.6264 11.1466C66.7125 4.21244 56.3497 0 44.9999 0Z" fill="#3FB5D1"/>
</g>
<defs>
<clipPath id="clip0_455_125">
<rect width="90" height="90" fill="white"/>
</clipPath>
</defs>
</svg>
