<?xml version="1.0" standalone="no"?>
<!DOCTYPE svg PUBLIC "-//W3C//DTD SVG 20010904//EN"
 "http://www.w3.org/TR/2001/REC-SVG-20010904/DTD/svg10.dtd">
<svg version="1.0" xmlns="http://www.w3.org/2000/svg"
 width="1040.000000pt" height="1040.000000pt" viewBox="0 0 1040.000000 1040.000000"
 preserveAspectRatio="xMidYMid meet">
<metadata>
Created by potrace 1.14, written by Peter Selinger 2001-2017
</metadata>
<g transform="translate(0.000000,1040.000000) scale(0.100000,-0.100000)"
fill="#000000" stroke="none">
<path d="M9145 10349 c-49 -22 -117 -53 -150 -69 -33 -15 -100 -46 -150 -68
-49 -23 -134 -61 -188 -86 -55 -26 -100 -46 -102 -46 -2 0 -36 -15 -77 -34
-77 -36 -252 -116 -353 -161 -33 -15 -78 -35 -100 -45 -22 -10 -76 -35 -120
-55 -44 -21 -118 -54 -165 -75 -47 -21 -119 -54 -160 -73 -41 -19 -167 -76
-280 -127 -113 -51 -232 -105 -265 -120 -33 -15 -87 -40 -120 -56 -33 -15 -62
-28 -65 -29 -3 -1 -23 -10 -45 -20 -22 -10 -42 -19 -45 -20 -5 -2 -91 -41
-175 -80 -27 -12 -84 -38 -125 -57 -41 -19 -93 -43 -115 -53 -22 -10 -42 -19
-45 -20 -6 -1 -26 -11 -210 -95 -130 -59 -308 -170 -399 -247 -105 -91 -229
-223 -281 -298 -8 -13 -42 -62 -76 -111 -162 -238 -295 -537 -355 -799 -47
-199 -46 -182 -34 -860 4 -220 7 -502 8 -627 1 -126 6 -228 10 -228 4 0 4 -7
-1 -17 -6 -9 -6 -29 -2 -45 5 -17 5 -28 -1 -28 -6 0 -7 -5 -4 -11 4 -5 8 -135
11 -287 2 -152 6 -344 9 -427 3 -82 8 -224 11 -315 3 -91 7 -208 9 -260 2 -52
6 -162 9 -245 7 -178 15 -354 21 -485 9 -190 17 -376 16 -405 0 -51 -12 -288
-16 -325 -9 -79 -23 -177 -29 -205 -1 -5 -8 -37 -15 -70 -17 -80 -51 -187 -65
-204 -6 -8 -11 -17 -10 -20 3 -18 -107 -252 -173 -370 -29 -51 -53 -97 -53
-102 0 -4 -6 -12 -13 -16 -6 -4 -18 -20 -26 -35 -8 -15 -21 -36 -30 -45 -9
-10 -29 -36 -46 -58 -16 -22 -61 -73 -100 -113 -38 -41 -72 -78 -74 -84 -4
-11 122 77 194 136 89 73 117 99 250 231 129 127 183 185 295 314 30 35 60 69
65 75 6 6 50 61 98 121 48 61 96 121 107 133 11 13 20 26 20 28 0 2 20 30 43
61 67 89 177 252 177 262 0 5 4 11 8 13 10 4 72 105 72 118 0 6 3 10 8 10 4 0
12 10 18 23 6 12 34 69 64 126 29 58 53 110 53 118 0 7 4 13 9 13 4 0 8 6 8
14 0 8 9 36 21 63 22 51 89 265 94 298 2 11 11 49 20 85 10 36 19 76 20 90 4
30 14 89 20 110 4 14 7 36 21 140 10 81 14 123 19 240 6 107 8 218 5 230 -1 3
-3 50 -5 105 -3 55 -7 136 -10 180 -8 133 -15 245 -20 340 -6 107 -13 216 -21
340 -3 50 -7 117 -9 150 -4 99 -17 306 -31 494 -3 41 -7 78 -10 82 -2 4 0 10
6 14 6 4 7 12 3 18 -4 7 -8 39 -9 72 -2 33 -5 89 -8 125 -3 36 -8 115 -11 175
-3 61 -8 148 -11 195 -7 118 -7 225 0 290 9 76 14 114 17 120 1 3 3 10 4 15
36 218 144 477 275 659 92 128 172 206 345 336 77 57 147 110 155 117 8 8 33
27 55 43 22 16 45 33 50 38 6 4 28 21 50 37 22 17 49 38 60 47 11 9 56 44 100
77 44 33 91 69 105 80 14 10 71 54 127 98 56 43 181 137 278 208 97 72 186
138 198 147 12 9 56 42 97 72 41 31 80 59 85 63 6 5 80 60 165 123 85 63 158
119 162 125 4 5 8 7 8 3 0 -3 10 2 23 13 12 11 83 64 157 119 74 55 145 107
157 117 12 10 40 31 62 47 23 17 41 33 41 38 0 4 4 8 10 8 5 0 20 9 32 19 13
11 109 88 213 171 235 186 251 200 245 200 -3 0 -45 -19 -95 -41z"/>
<path d="M5200 8492 c-19 -15 -42 -34 -50 -43 -8 -9 -42 -38 -75 -65 -33 -27
-65 -53 -71 -59 -7 -5 -32 -26 -55 -47 -24 -20 -80 -67 -125 -105 -44 -37
-102 -87 -130 -110 -27 -23 -59 -50 -72 -61 -13 -11 -41 -35 -64 -54 -52 -42
-117 -98 -140 -120 -10 -10 -20 -18 -23 -18 -3 0 -16 -10 -29 -22 -12 -13 -42
-39 -66 -58 -25 -19 -63 -51 -85 -71 -22 -19 -98 -84 -170 -144 -71 -59 -134
-113 -140 -119 -5 -6 -46 -40 -90 -76 -44 -35 -82 -67 -85 -70 -5 -6 -110 -95
-148 -126 -13 -10 -33 -27 -44 -36 -12 -10 -25 -18 -30 -18 -4 0 -8 -7 -8 -15
0 -8 -5 -15 -10 -15 -21 0 -489 -482 -687 -706 -28 -33 -63 -72 -78 -89 -45
-51 -279 -338 -310 -380 -16 -22 -32 -42 -35 -45 -6 -5 -80 -110 -105 -148
-13 -20 -112 -164 -122 -177 -5 -6 -37 -53 -72 -105 -36 -52 -68 -96 -73 -98
-4 -2 -8 -9 -8 -14 0 -6 -17 -34 -38 -62 -20 -28 -69 -98 -107 -156 -38 -58
-72 -107 -75 -110 -5 -5 -61 -89 -384 -570 -83 -124 -154 -226 -158 -228 -5
-2 -8 -8 -8 -12 0 -12 -62 -104 -72 -108 -4 -2 -8 -8 -8 -13 0 -10 35 6 57 25
6 6 36 28 65 49 117 84 223 161 228 167 3 3 30 24 60 47 30 23 71 55 90 72 19
17 40 34 45 38 38 29 111 88 115 93 3 3 25 21 50 40 25 19 47 37 50 40 3 3 28
23 55 45 73 58 86 69 99 80 6 6 70 57 141 115 72 57 159 128 195 158 36 29 74
61 86 70 11 9 36 28 54 42 18 14 40 32 49 41 9 8 36 31 61 49 25 19 50 39 56
45 6 5 64 53 129 105 64 52 131 108 149 123 55 49 116 80 154 79 56 -2 59 -10
68 -152 2 -47 7 -114 9 -150 3 -36 7 -110 11 -165 3 -55 7 -116 9 -135 2 -19
6 -71 9 -115 4 -44 9 -96 11 -115 5 -32 10 -81 20 -185 2 -22 6 -65 10 -95 3
-30 8 -84 10 -120 2 -36 6 -85 9 -110 3 -25 8 -88 12 -140 3 -52 7 -111 9
-130 8 -103 21 -313 31 -535 9 -191 9 -769 0 -900 -12 -176 -23 -274 -36 -325
-5 -19 -11 -48 -14 -65 -2 -16 -10 -52 -16 -80 -6 -27 -12 -60 -14 -72 -2 -11
-7 -30 -11 -42 -3 -11 -8 -31 -11 -43 -8 -45 -24 -109 -90 -358 -25 -96 -99
-335 -121 -390 -4 -8 -7 -17 -8 -20 -47 -136 -180 -437 -218 -492 -10 -16 -15
-28 -11 -28 3 0 2 -6 -3 -13 -6 -6 -25 -39 -43 -72 -44 -81 -190 -309 -217
-342 -13 -14 -23 -29 -23 -33 0 -3 -8 -15 -18 -26 -27 -31 -63 -84 -57 -84 15
0 331 231 346 252 3 4 20 19 38 33 99 73 493 456 626 609 33 38 69 79 80 92
31 34 56 64 110 132 28 34 53 62 58 62 4 0 7 6 7 14 0 8 4 16 9 18 7 2 120
154 169 224 68 100 116 180 224 369 17 30 103 203 126 255 101 226 192 522
218 710 3 25 8 54 11 65 3 16 15 358 14 400 0 6 -2 43 -3 83 -2 39 1 72 5 72
5 0 6 4 2 10 -3 5 -8 172 -10 372 -3 200 -7 440 -10 533 -3 94 -7 249 -10 345
-3 96 -7 238 -10 315 -12 361 -15 438 -20 550 -8 207 -16 426 -20 545 -2 63
-7 194 -10 290 -15 373 -11 520 15 635 6 28 13 57 15 65 13 64 67 233 91 288
8 17 21 49 30 70 9 20 34 74 55 120 22 46 39 87 39 92 0 4 3 10 8 12 4 2 17
23 30 48 12 25 28 54 35 65 7 11 27 43 45 72 17 30 32 56 32 58 0 12 197 295
235 339 6 6 30 38 55 71 25 33 49 64 53 70 14 18 106 155 104 155 -1 0 -18
-13 -37 -28z"/>
</g>
</svg>
